<?xml version="1.0" standalone="no"?>
<svg
  width="600"
  height="600"
  viewBox="0 0 600 600"
  xmlns="http://www.w3.org/2000/svg"
>
  <g transform="translate(300,300)">
    <path d="M110.9,-161.1C155.2,-144.2,210.4,-132.7,238.6,-100.4C266.8,-68,268,-14.6,251.7,29.8C235.4,74.3,201.6,109.8,167.7,140.6C133.7,171.4,99.7,197.5,58.8,217.2C17.9,237,-29.8,250.4,-70.7,239.1C-111.6,227.9,-145.7,191.9,-175.1,154C-204.4,116,-228.9,76.2,-231.4,35.4C-233.8,-5.3,-214.2,-47.1,-188.6,-79C-162.9,-110.9,-131.2,-132.8,-98.8,-155.2C-66.3,-177.5,-33.2,-200.3,0.1,-200.4C33.3,-200.5,66.7,-178.1,110.9,-161.1Z" fill="#a7ff83" />
  </g>
</svg>
  