<svg viewBox="0 0 600 600" xmlns="http://www.w3.org/2000/svg" fill-rule="evenodd" clip-rule="evenodd" stroke-linejoin="round" stroke-miterlimit="2"><path d="M410.9 138.9c44.3 16.9 99.5 28.4 127.7 60.7 28.2 32.4 29.4 85.8 13.1 130.2-16.3 44.5-50.1 80-84 110.8-34 30.8-68 56.9-108.9 76.6-40.9 19.8-88.6 33.2-129.5 21.9-40.9-11.2-75-47.2-104.4-85.1-29.3-38-53.8-77.8-56.3-118.6-2.4-40.7 17.2-82.5 42.8-114.4 25.7-31.9 57.4-53.8 89.8-76.2 32.5-22.3 65.6-45.1 98.9-45.2 33.2-.1 66.6 22.3 110.8 39.3z" fill="#086972" fill-rule="nonzero"/><path d="M244.744 303.89s3.956-29.01 10.549-21.098c6.593 7.912 0 19.779 0 19.779l-5.275 6.593-5.274-3.956v-1.319z" fill="#ffb8b8" fill-rule="nonzero"/><path d="M228.92 313.12s13.186-14.505 15.824-11.868c2.637 2.637 10.549 3.956 9.23 9.23-1.318 5.275-29.01 22.417-29.01 22.417l3.956-19.78z" fill="#789463" fill-rule="nonzero"/><path d="M228.92 313.12s13.186-14.505 15.824-11.868c2.637 2.637 10.549 3.956 9.23 9.23-1.318 5.275-29.01 22.417-29.01 22.417l3.956-19.78z" fill-opacity=".1" fill-rule="nonzero"/><path d="M153.76 311.801v10.55s-1.32 23.734 6.592 22.416c7.911-1.319 3.956-21.098 3.956-21.098l-1.319-11.868h-9.23zM157.715 388.281s-11.868 18.461-15.824 19.78c-3.955 1.318-25.054 13.186-27.69 25.054L95.74 456.85l9.23 11.867s42.196-44.833 54.063-48.789c11.868-3.955 23.735-23.735 23.735-23.735l-25.053-7.912zM251.337 357.953s25.053 3.956 21.098 19.78c-3.956 15.823-42.196 48.788-42.196 48.788l-1.319 7.912-14.505 2.637-6.593-6.593 1.319-3.956s15.823-14.505 17.142-19.779c1.319-5.274 15.823-26.373 22.417-27.691l-9.23-5.274 11.867-15.824z" fill="#ffb8b8" fill-rule="nonzero"/><path d="M99.695 456.85s5.275-7.912-2.637-6.593c-7.912 1.318-13.186 2.637-13.186 7.911 0 5.275 6.593 42.196 14.505 39.56 7.911-2.638 1.318-14.506 1.318-14.506s3.956-10.549 6.593-11.868c2.638-1.318 2.638-7.911 0-7.911-2.637 0-7.911-3.956-6.593-6.593zM211.778 427.84s0-6.593-5.274 0c-5.275 6.593-7.912 11.868-2.637 15.823 5.274 3.957 23.735 13.187 23.735 13.187s19.779 3.956 17.142-5.275c0 0-13.186-6.593-13.186-11.867 0-5.275 0-14.505-3.956-11.868-3.956 2.637-15.824 3.956-15.824 0zM186.725 328.943s-18.462 2.638-17.142 29.01c0 0-23.736 23.736-17.142 31.647 6.592 7.911 21.097 22.416 26.372 18.46 5.274-3.955 21.097-34.283 21.097-34.283s36.922 13.186 43.515 6.592c6.593-6.592 13.186-22.416 13.186-22.416l-32.965-17.142-36.921-11.868z" fill="#2f2e41" fill-rule="nonzero"/><circle cx="413.154" cy="176.379" r="25.142" fill="#ffb8b8" transform="matrix(.62937 0 0 .62937 -21.874 126.952)"/><path d="M226.283 239.277s-9.23 14.505-11.868 15.823c-2.637 1.32 18.461 14.505 18.461 14.505s0-17.142 6.593-21.097l-13.186-9.231z" fill="#ffb8b8" fill-rule="nonzero"/><path d="M224.964 253.782s-21.097-6.593-25.054 3.956c-3.955 10.549-13.185 30.328-11.867 43.514 1.319 13.186 3.956 10.55 0 14.505-3.956 3.956-6.593 1.319-5.275 6.593 1.319 5.275 2.637 5.275 1.319 7.912-1.319 2.637 15.823 11.868 30.328 13.186l14.505 1.319s0-23.735 2.638-29.01c2.637-5.274 7.911-15.823 7.911-19.78v-10.466a40.03 40.03 0 00-5.274-19.861c-3.456-6.049-7.912-11.868-9.23-11.868z" fill="#789463" fill-rule="nonzero"/><path d="M209.14 259.057s-48.788 3.955-54.062 17.142c-5.275 13.185-7.912 39.558-2.637 39.558 5.274 0 11.867 2.637 13.185 0 1.319-2.637 6.594-29.01 7.912-29.01 1.319 0 40.877-3.955 40.877-3.955s17.143-21.098-5.274-23.735z" fill="#789463" fill-rule="nonzero"/><path d="M238.786 234.036s4.2-7.297 9.448-.959c5.25 6.338 13.788-5.31 12.477-7.795-1.311-2.486-5.94.112-13.872-2.481-7.934-2.594-23.215-7.877-25.774 9.357-2.56 17.233 3.536 15.426 3.536 15.426s2.794-15.27 5.319-10.884l2.526 4.386 2.19.54 4.15-7.59z" fill="#2f2e41" fill-rule="nonzero"/><circle cx="651.309" cy="75.314" r="30.674" fill="#2f2e41" transform="matrix(.62937 0 0 .62937 -21.874 126.952)"/><path d="M381.866 188.641s1 17.982-.999 17.982c-1.998 0 12.488 8.492 12.488 8.492l8.991-4.995v-5.994s-11.988-1.499-6.993-14.486c4.995-12.987-13.487-.999-13.487-.999zM339.907 385.947l-1.498 14.985 4.995 1.499 3.996-3.996 1.498-12.488h-8.99zM411.837 394.439l2.497 9.49 6.993 4.496 7.493-3.996-8.492-13.987-8.491 3.997z" fill="#9f616a" fill-rule="nonzero"/><circle cx="649.044" cy="87.304" r="23.016" fill="#9f616a" transform="matrix(.62937 0 0 .62937 -21.874 126.952)"/><path d="M377.87 236.094l-3.496-1.498s-5.994-3.496-6.494-10.49c-.5-6.993 4.995-15.984 4.995-15.984l7.992-2.498 9.39 7.643.1 12.338-12.487 10.49z" fill="#9f616a" fill-rule="nonzero"/><path d="M374.374 209.12l-1.998-.998s-9.99-.5-10.99 11.488c-.999 11.989-4.495 31.97-4.495 31.97s-7.992 13.986-7.493 28.97l-3.996 12.988s-5.494 18.981 1 18.981c6.493 0 5.993-20.48 5.993-20.48s11.988-28.971 12.988-33.966c.999-4.995 9.49-28.473 6.993-34.966-2.498-6.494 1.998-13.986 1.998-13.986zM381.866 240.59v5.495s3.497 3.996 1.998 6.493c-1.498 2.498-2.997 7.493-2.997 7.493l6.994 10.989 23.476 1.998 4.669-31.28-34.14-1.188zM403.845 205.624l3.995-1.998s8.492-5.994 15.485-6.993l21.48-14.486 13.986-33.467s-.5-17.982 3.496-15.984c3.996 1.998 3.497 17.483 3.497 17.483s-7.493 30.97-13.987 39.461c-6.493 8.491-29.97 22.478-29.97 22.478s-6.494 7.492-5.994 10.99c.5 3.496-11.988-17.484-11.988-17.484z" fill="#9f616a" fill-rule="nonzero"/><path d="M385.363 260.07s-5.495-3.496-8.992 2.498c-3.496 5.995-9.99 7.493-13.985 25.475-3.997 17.983-13.487 46.454-15.985 48.453-2.497 1.997-12.987 22.977-6.993 52.448h9.99l8.492-42.458s27.473-33.967 29.47-47.953l8.992 52.448s.5 19.98 7.992 29.47l7.992 18.983 10.49-4.996-11.989-47.952s5.995-48.453 1.999-61.94l-.574-17.68s-16.41.697-26.9-6.795zM343.404 398.435h-5.994c-.999 0-8.991 6.493-5.494 9.99 3.496 3.496 8.99 9.99 8.99 9.99s19.481 2.477 19.981-1.02c.5-3.495-8.492-10.969-8.492-10.969l-2.497-7.991s-4.995-5.495-6.494 0zM422.826 403.43s-8.492-.5-9.99-1c-1.499-.5-4.496 12.988 0 13.987 4.495.999 22.977 2.497 22.977 2.497s14.486-.5 13.487-4.495c-.999-3.996-20.48-11.988-20.48-11.988s-2.498-4.996-5.994.998z" fill="#2f2e41" fill-rule="nonzero"/><path d="M383.365 205.125l-2.498-1.499-2.997 2.498s8.991 5.994 6.994 11.488c-1.999 5.495-10.49 16.984-10.49 16.984s7.492 8.492 7.492 11.489c0 0 19.481-6.994 33.967 0 0 0 0-9.99 1.998-11.988 1.998-1.999 2.997-8.992-1.998-14.986a109.624 109.624 0 01-9.491-13.986l-4.995-2.997-2.573.816s5.07 5.677.075 6.177c-4.994.5-12.987-.999-15.484-3.996z" fill="#789463" fill-rule="nonzero"/><path d="M402.147 141.438a10.561 10.561 0 01-6.545 3.428c-4.364.623-.935 7.48-.935 7.48s-1.247-2.493 1.246-4.675c2.494-2.182 6.234-3.428 6.234-6.233z" fill="#2f2e41" fill-rule="nonzero"/><circle cx="660.36" cy="42.628" r="8.549" fill="#2f2e41" transform="matrix(.62937 0 0 .62937 -21.874 126.952)"/><path d="M400.015 159.078c-4.156-2.171-11.307-3.879-15.106-3.757l.961-3.674c3.364 2.285 10.476 4.025 15.106 3.757l-.961 3.674z" fill="#789463" fill-rule="nonzero"/><path d="M391.428 159.402s-6.55 8.42-19.649 10.292c-13.1 1.871-2.807 22.456-2.807 22.456s-3.743-7.485 3.742-14.035c7.486-6.55 18.714-10.293 18.714-18.713z" fill="#2f2e41" fill-rule="nonzero"/><path d="M391.928 158.902s3.742 13.1 9.356 14.97c5.614 1.872 2.807 21.521-6.55 23.393 0 0 7.954-10.76 3.276-19.182-4.679-8.42-7.486-14.97-6.082-19.181z" fill="#2f2e41" fill-rule="nonzero"/><path fill="#2f2e41" d="M445.553 136.942h34.466v3.996h-34.466z"/><ellipse cx="797.46" cy="19.048" rx="4.762" ry="19.048" fill="#2f2e41" transform="matrix(.62937 0 0 .62937 -21.874 126.952)"/><ellipse cx="742.696" cy="19.048" rx="4.762" ry="19.048" fill="#2f2e41" transform="matrix(.62937 0 0 .62937 -21.874 126.952)"/><path fill="#2f2e41" d="M463.036 405.687h34.466v3.996h-34.466z"/><ellipse cx="825.238" cy="446.057" rx="4.762" ry="19.048" fill="#2f2e41" transform="matrix(.62937 0 0 .62937 -21.874 126.952)"/><ellipse cx="770.475" cy="446.057" rx="4.762" ry="19.048" fill="#2f2e41" transform="matrix(.62937 0 0 .62937 -21.874 126.952)"/></svg>