<svg viewBox="0 0 600 600" xmlns="http://www.w3.org/2000/svg" fill-rule="evenodd" clip-rule="evenodd" stroke-linejoin="round" stroke-miterlimit="2"><path d="M410.9 138.9c44.3 16.9 99.5 28.4 127.7 60.7 28.2 32.4 29.4 85.8 13.1 130.2-16.3 44.5-50.1 80-84 110.8-34 30.8-68 56.9-108.9 76.6-40.9 19.8-88.6 33.2-129.5 21.9-40.9-11.2-75-47.2-104.4-85.1-29.3-38-53.8-77.8-56.3-118.6-2.4-40.7 17.2-82.5 42.8-114.4 25.7-31.9 57.4-53.8 89.8-76.2 32.5-22.3 65.6-45.1 98.9-45.2 33.2-.1 66.6 22.3 110.8 39.3z" fill="#086972" fill-rule="nonzero"/><path d="M282.443 333.778l-15.512.32-2.535 3.481v12.03l3.166 2.216h14.881l3.167-3.481v-11.4l-3.167-3.166z" fill="#789463" fill-rule="nonzero"/><path d="M282.119 335.679s-14.246 2.216-15.512 0l.32-1.58 15.192-.335v1.915z" fill="#fff" fill-opacity=".2" fill-rule="nonzero"/><path d="M283.709 368.603l2.531 2.536v12.054l-2.531 2.494s-9.18 3.166-15.197.63l-2.85-2.846v-12.053l2.535-2.852 15.512.037z" fill="#789463" fill-rule="nonzero"/><path d="M283.074 371.455s-11.08 2.53-14.877 0v-2.852h15.512l-.635 2.852z" fill="#fff" fill-opacity=".2" fill-rule="nonzero"/><path d="M277.691 351.743v17.125a2.58 2.58 0 01-2.688 2.429 2.58 2.58 0 01-2.69-2.43v-17.124c0-1.456 1.392-2.583 3.005-2.416a2.54 2.54 0 012.373 2.416zM307.287 334.27l-15.512.314-2.535 3.482v12.03l3.166 2.216h14.881l3.167-3.481v-11.4l-3.167-3.162z" fill="#789463" fill-rule="nonzero"/><path d="M306.967 336.166s-14.246 2.216-15.511 0l.315-1.581 15.196-.315v1.896z" fill="#fff" fill-opacity=".2" fill-rule="nonzero"/><path d="M308.544 369.09l2.53 2.536v12.054l-2.53 2.508s-9.184 3.166-15.197.63l-2.851-2.846v-12.03l2.536-2.852h15.512z" fill="#789463" fill-rule="nonzero"/><path d="M307.918 371.941s-11.08 2.532-14.877 0v-2.85h15.503l-.626 2.85z" fill="#fff" fill-opacity=".2" fill-rule="nonzero"/><path d="M302.517 352.23v17.125a2.585 2.585 0 01-2.689 2.429 2.585 2.585 0 01-2.693-2.43V352.23c0-1.455 1.39-2.582 3.008-2.415a2.54 2.54 0 012.374 2.415zM338.914 343.425l-12.772.264-2.086 2.865v9.903l2.605 1.826h12.253l2.605-2.87v-9.383l-2.605-2.605z" fill="#789463" fill-rule="nonzero"/><path d="M338.65 344.993s-11.725 1.822-12.768 0l.26-1.303 12.517-.264-.01 1.567z" fill="#fff" fill-opacity=".2" fill-rule="nonzero"/><path d="M339.952 372.094l2.086 2.087v9.902l-2.086 2.086s-7.556 2.605-12.517.52l-2.346-2.346v-9.903l2.086-2.346h12.777z" fill="#789463" fill-rule="nonzero"/><path d="M339.433 374.44s-9.124 2.086-12.248 0v-2.346h12.767l-.52 2.346z" fill="#fff" fill-opacity=".2" fill-rule="nonzero"/><path d="M335 358.214v14.098a2.124 2.124 0 01-2.215 1.998 2.119 2.119 0 01-2.211-1.998v-14.098a2.15 2.15 0 012.47-1.988 2.094 2.094 0 011.957 1.988zM359.363 343.828l-12.772.26-2.082 2.865v9.907l2.606 1.822h12.248l2.605-2.865v-9.383l-2.605-2.606z" fill="#789463" fill-rule="nonzero"/><path d="M359.103 345.391s-11.729 1.827-12.772 0l.26-1.302 12.517-.26-.005 1.562z" fill="#fff" fill-opacity=".2" fill-rule="nonzero"/><path d="M360.406 372.498l2.081 2.081v9.903l-2.081 2.086s-7.561 2.605-12.517.524l-2.341-2.332v-9.917l2.086-2.345h12.772z" fill="#789463" fill-rule="nonzero"/><path d="M359.882 374.843s-9.119 2.082-12.248 0v-2.345h12.772l-.524 2.345z" fill="#fff" fill-opacity=".2" fill-rule="nonzero"/><path d="M355.455 358.613v14.093a2.124 2.124 0 01-2.216 1.998 2.124 2.124 0 01-2.216-1.998v-14.093c0-1.196 1.159-2.123 2.475-1.984a2.09 2.09 0 011.957 1.984z" fill="#789463" fill-rule="nonzero"/><path d="M1073 599.07c-2.15-3.89-6.17-6.45-10.4-7.63a38.009 38.009 0 00-13.08-.82 114.95 114.95 0 00-20.93 3.45c-4.25 1.12-8.66 2.62-11.53 6-.08.1-.17.22-.26.32-4.39 1.15-8.75 2.92-13 4.36a121.962 121.962 0 01-13 3.53c5.75-3.27 11.35-6.73 16.09-11.35a45.557 45.557 0 006-7.16c3.25.93 6.66 1.159 10 .67 6.77-1.16 12.24-6 17.33-10.72l16.37-15.06c2.61-2.4 5.26-4.86 7-8 2.35-4.37 2.56-9.57 2.62-14.56.08-6.86 0-13.72-.2-20.57l5.18 4a45.808 45.808 0 014.54-24.56c1.8-3.63 4.16-7.24 4.21-11.31.08-6.28-5.32-11.22-10.85-14-5.53-2.78-11.75-4.56-16.28-8.83-6.74-6.35-8-16.48-11.33-25.18a100.064 100.064 0 00-7-13.77l-6.48-11.3a159.95 159.95 0 00-10.88-17.19c-6.74-8.89-15.23-16.22-23.66-23.47l-43.84-37.77c-10.66-9.19-21.36-18.39-32.89-26.43-23.39-16.31-49.78-27.51-76-38.6-6.6-2.8-13.47-5.64-20.61-5.3a23.57 23.57 0 00-14.44 6.18 86.187 86.187 0 01-11-4.18l-.28-.13c.08-.59.17-1.17.23-1.76.09-.78.14-1.56.2-2.35a18.327 18.327 0 005.66-1.85 6.788 6.788 0 002.33-1.81 8.293 8.293 0 001.19-4.43c.8-10.45 1.6-21 .74-31.4-.86-10.4-3.47-20.93-9-29.77-1.71-2.74-3.85-5.41-6.82-6.6-4-1.6-8.63-.11-12.9-.83-7.39-1.25-12-8.48-17.35-13.81-13.53-13.49-36.67-15.52-52.29-4.6-5.92 4.15-10.66 9.78-15.94 14.74-5.28 4.96-11.47 9.45-18.6 10.42a9.067 9.067 0 00-3.77 1c-1.46.92-2.12 2.69-2.68 4.33-2 5.66-3.92 11.47-4.53 17.39-.07-.36-.13-.72-.19-1.08a33.883 33.883 0 00-.17 6.61 19.287 19.287 0 002.38 8 10.852 10.852 0 005.47 5.22c1.691.598 3.477.886 5.27.85h.79a63.994 63.994 0 00-4.18 22.83c0 35 27.93 63.36 62.41 63.36 4.15-.02 8.287-.456 12.35-1.3 1.35.43 2.7.87 4 1.34a75.088 75.088 0 017.82 3.08c1.08.51 5.45 3.06 10.73 6.35l-.36.75a39.785 39.785 0 00-11.49 38.43c3.82 14.87 16.35 27.62 15.09 42.93-.18 2.18-.64 4.39-.27 6.55.51 3 2.54 5.44 4.57 7.66 1.76 1.94 3.59 3.82 5.45 5.66-.15 9.77-1 19.53-1.92 29.27-.08.85-.1 1.71-.11 2.58a18.004 18.004 0 004.32 11.47c2.9 3.53 4.06 8.82 3.51 13.54-.79 6.76-4.12 12.89-6.35 19.3-10.06 28.83 2.3 61.34-4.66 91.11-1.71 7.33-4.59 14.46-5 22-.23 4.71.51 9.65-1.3 14-1.57 3.78-4.84 6.51-7.93 9.16a291.695 291.695 0 00-12.76 11.6 176.632 176.632 0 00-19.34-9.1 34.654 34.654 0 00-3.3-1.14c-7.82-7.32-17.68-12-26.94-17.38-7.68-4.45-15-9.45-22.36-14.45-7-4.8-14.15-9.64-20.07-15.81-3-3.12-5.67-6.56-8.9-9.41a75.739 75.739 0 00-9-6.44 361.595 361.595 0 01-40.48-30.45c-9.73-8.44-17.69-19.31-28.09-26.88-6.37-4.64-13.78-8.87-21.58-8a20.578 20.578 0 00-7.11 2.19 18.599 18.599 0 00-6.52-1.46c-6.34-.2-12.16 3.24-17.6 6.55-32 19.447-64.5 38.027-97.5 55.74-6.66 3.58-13.36 7.13-19.72 11.23a133.927 133.927 0 00-32.54 29.67c-1.68 2.13-3.8 4.55-6.47 4.23a5.775 5.775 0 01-2.07-.74c-4.11-2.23-6.63-6.54-9-10.63-1.72-3-3.58-6.13-6.1-8.41a17.758 17.758 0 00-2.14-4c3.55-8.76 6.61-17.73 9.45-26.76 1.48-4.74 2.91-9.51 4.8-14.11 4.66-11.38 12.09-21.69 14.72-33.73.63-2.91 1-5.9 1.49-8.84 28.75-5.66 50.45-31.34 50.45-62.18 0-35-27.94-63.36-62.41-63.36s-62.4 28.36-62.4 63.36c-.063 21.627 10.924 41.851 29.1 53.57v.35a44.217 44.217 0 01-.59 6c-1.15 6.7-4 13-6.87 19.11-1.9 4.09-3.8 8.2-5.77 12.28a11.392 11.392 0 01-2.73-.92c-1.69-.94-2.43-3-3.07-4.82a172.432 172.432 0 00-10.37-24.26 41.99 41.99 0 00-6-9.21c-4.22-4.62-10-7.36-15.59-10.13-1-.48-1.93-1-2.89-1.46a24.665 24.665 0 00-2.6-1.69c-4.65-2.63-9.81-4.52-13.69-8.2-2.91-2.76-4.91-6.35-7.63-9.28-4.53-4.87-10.78-7.65-16.85-10.3-3.16-1.38-6.48-2.79-9.93-2.6-.486.024-.97.077-1.45.16-.83.142-1.651.328-2.46.56A13.402 13.402 0 01216 467c-3.71-2.86-5.15-7.77-6.36-12.34-2-7.64-4.11-15.55-2.87-23.37.216-1.349.51-2.685.88-4 .31-.51.61-1 .88-1.55 21.991-6.61 37.153-26.999 37.153-49.962a52.181 52.181 0 00-9.843-30.498c-.51-.7-1-1.38-1.57-2.06l.6-.33c5.53-3.38 6.79-11.46 4.23-17.48-2.56-6.02-8-10.27-13.51-13.61-.8-.49-1.61-.95-2.43-1.41l-.7-.38c-.62-.34-1.23-.67-1.85-1l-.73-.37c-.73-.37-1.46-.72-2.19-1.06l-.33-.16c-.91-.41-1.82-.81-2.74-1.19-.89-.37-1.78-.71-2.68-1l-.37-.14c-.85-.31-1.71-.6-2.57-.88l-.19-.06a67.21 67.21 0 00-19.46-3.28A93.134 93.134 0 00170.1 303a93.254 93.254 0 00-18 5.17 64.186 64.186 0 00-24.67 18.5 23.742 23.742 0 00-4.12.68c-5.41 1.37-10.28 4.39-14.73 7.81a46.982 46.982 0 00-9.8 9.72 41.938 41.938 0 00-6.61 15.77c-3.79 17.73.87 36 4.3 53.82 3.43 17.82 5.41 37.24-3 53.23-3.17 6-7.67 11.21-11 17.1-3.33 5.89-5.64 13-3.72 19.53 2.33 7.93 10 12.92 14 20.12 4.68 8.39 3.39 19.66-2.73 27-.27.32-.54.64-.83 1-.29.36-.7.74-1.08 1.08 6.31 2.22 13.34-.17 19-3.73a33.74 33.74 0 0011.21-10.79c7.15-11.74 3.94-26.92 6.46-40.49 3.31-17.77 16.67-33.62 14.83-51.61-1.24-12.07-9.12-22.16-15.31-32.54a128.724 128.724 0 01-10.3-21.92c-.11-.32-.22-.65-.34-1-1.81-5.15-3.2-10.61-2.27-16a22.374 22.374 0 011.56-5.07v.58a39.258 39.258 0 003.41 15.11c6.25 13 21.29 19 30.84 29.54.4.44.78.89 1.16 1.35.11.12.21.25.31.38l.81 1 .34.47c.25.35.5.7.73 1.06l.31.45c.32.51.64 1 .94 1.55 2.43-2.69 4.94-5.52 5.92-9 .09-.3.15-.61.21-.92.08.08.15.17.23.26.19 1.07.34 2.14.48 3.22 0 1.543.164 3.082.49 4.59.76 9.6.15 19.46-.49 29.09-.34 5.15 1 12.8-2.28 16.64l-.1.11a5.271 5.271 0 01-.63.62c-.56.58-1.13 1.15-1.66 1.75-11 12.4-16 30-15.74 46.86.26 19.19 6.39 37.78 13.34 55.63a156.19 156.19 0 008.56 19 33.186 33.186 0 006.61 8.89c2.81 2.49 6.23 4.13 9.6 5.73.84.4 1.69.79 2.53 1.2l2.15 1 16.37 7.78c3 4.41 5.9 8.94 8.83 13.48.42.64.83 1.3 1.26 1.94 3.2 5 6.42 10 9.7 14.86l27.59 40.86c2 3 4.09 6 6.9 8.22a14.07 14.07 0 002.58 1.61c.465.224.942.421 1.43.59a4.562 4.562 0 00-.73 3.09 5.231 5.231 0 002 2.61c6.24 5.16 13.17 10.6 15.13 18.53 1.39 5.65 0 11.7 1.25 17.38 2.29 10.24 12.42 16.45 22 20.39 21.47 8.82 45.32 12.21 68.13 8.11 22.81-4.1 44.48-15.93 59.25-34 4.54-5.58 8.41-11.67 12.72-17.43 3-4.06 6.3-7.93 9.71-11.66a80.207 80.207 0 0010.61-5.86c7.21-4.79 13.42-10.94 20-16.64 4.91-4.28 10.05-8.32 14.56-13a152.357 152.357 0 0011.33-14c8-10.6 16.263-20.99 24.79-31.17 4.56-5.45 9.39-11 15.76-14l.29-.12c.76 4.48 4.31 8.28 6.8 12.15 10.3 16 21.08 32.47 37 42.67 8.72 5.58 18.58 9 28.42 12.12 25 7.9 50.4 14.1 75.82 20.31.84-1.6 1.66-3.08 2.58-4.52.394.417.761.857 1.1 1.32.11.16.2.33.31.49a3.601 3.601 0 00-.54.15 7.11 7.11 0 00-3.59 3.78c-2.74 5.49-3 11.86-3.13 18-.09 6 0 12 0 18a15.53 15.53 0 001 6.58c1.94 4 6.87 5.49 11.28 6 7.66.85 15.38.13 23-.9a17.74 17.74 0 002.13 5.09c4.28 7 11.67 11.62 19.36 14.33 7.69 2.71 15.84 3.79 23.83 5.38 14.19 2.82 28.71 7.33 42.82 4.15 5.63-1.27 11-3.73 16.63-4.81 12.89-2.44 26.25 2.5 39.23.52 6.27-1 12.2-3.5 17.88-6.37a24.515 24.515 0 007.65-5.28c2.08-2.34 3.33-5.66 2.47-8.69-.49-1.74-1.61-3.22-2.36-4.86a25.852 25.852 0 01-1.69-8.2A225.157 225.157 0 00885.1 704c-.07-.29-.15-.59-.23-.89 9.81-3.89 18.6-10 27.28-16.08l18.67-13.06c6-4.23 12.15-8.48 18.89-11.44 10.34-4.54 21.79-5.84 33.06-5.83 4.61 0 9.23.23 13.82.65a6.007 6.007 0 00-1.29 2.22c-.92 2.86.54 6 2.71 8.09s5 3.27 7.55 4.72a45.666 45.666 0 0117 16.71c2.56 4.39 4.42 9.72 2.8 14.55-2 6.06-9.13 10.24-8.72 16.62.24 3.76 3.27 6.87 6.72 8.26 3.45 1.39 7.28 1.37 11 1.26 6.09-.19 12.36-.66 17.81-3.43 3.67-1.87 6.78-4.69 9.83-7.48 2.78-2.55 5.62-5.2 7.2-8.64 1.48-3.24 1.71-6.91 1.78-10.47.3-16.76-2.59-33.75.74-50.17 1-5 2.6-9.89 3.45-14.93 1.34-8 .83-16.08.32-24.12-.25-3.96-.55-8.04-2.49-11.47z" fill="url(#_Linear1)" fill-rule="nonzero" transform="matrix(.4636 0 0 .4636 39.196 117.266)"/><path d="M438.684 287.535c-1.822 1.228-2.457 3.602-2.69 5.79-.987 9.304 2.852 18.516 2.597 27.867-.204 7.44-2.976 14.538-5.711 21.46-4.664 11.807-7.093 24.63-8.035 37.291-.94 12.66-2.318 25.845-9.114 36.554-1.544 2.425-3.342 4.678-4.854 7.117-1.585 2.55-2.841 5.285-4.242 7.936a85.397 85.397 0 01-15.762 21.173c-1.854 1.808-3.82 3.56-6.184 4.603a12.456 12.456 0 01-9.67.102c-3.172-1.312-5.842-4.27-5.972-7.7-.116-3.07 1.716-5.837 3.551-8.294a136.138 136.138 0 0121.326-22.605c1.441-1.214 2.962-2.47 3.708-4.205.84-1.998.497-4.265.603-6.43.172-3.453 1.516-6.731 2.318-10.097 3.245-13.671-2.522-28.599 2.17-41.844 1.043-2.943 2.591-5.757 2.957-8.859.26-2.17-.278-4.594-1.636-6.221a8.18 8.18 0 01-2.007-5.267c0-.398 0-.793.046-1.182.566-6.068 1.127-12.165.82-18.252-.305-6.087-1.515-12.206-4.325-17.616-1.455-2.805-3.338-5.429-4.237-8.456-1.446-4.9-.111-10.2 2.044-14.835 1.683-3.625 3.927-7.08 7.06-9.564 5.824-4.613 14.54-5.146 20.914-1.33 4.7 2.809 7.918 7.533 10.528 12.35 1.873 3.518 3.825 6.5 3.797 10.514z" fill-opacity=".06" fill-rule="nonzero"/><path d="M423.232 250.586c-.89 2.402-1.775 4.803-2.656 7.205-.584 1.576-1.164 3.166-1.767 4.742-2.781 7.265-5.892 14.413-10.76 20.426.728-.9-6.119-5.424-11.168-8.511-2.461-1.516-4.501-2.685-5.002-2.916a36.583 36.583 0 00-3.648-1.42c-1.924-.648-3.871-1.209-5.795-1.91-4.45-1.608-1.34-4.023.565-6.62 6.236-8.502 7.418-20.12 14.497-27.93a26.11 26.11 0 0011.72 11.334c.097.051.199.098.301.14 4.205 1.965 8.85 2.813 13.199 4.459.236.088.51.213.588.464.03.182.004.37-.074.537zM411.128 422.31a20.931 20.931 0 00-2.156 20.014 6.782 6.782 0 001.562 2.416 7.318 7.318 0 002.981 1.39c9.207 2.62 19.035 2.105 28.465.464a50.08 50.08 0 009.374-2.388c4.668-1.784 8.836-4.636 12.953-7.482l8.706-5.999c2.819-1.942 5.66-3.894 8.808-5.257 4.822-2.082 10.162-2.68 15.415-2.675 4.511.006 9.012.435 13.444 1.284 2.953.57 6.49 1.16 8.567-.997 1.187-1.219 1.54-3.004 1.771-4.687a69.84 69.84 0 00-.051-19.735 2.56 2.56 0 00-.57-1.506 2.336 2.336 0 00-1.15-.524c-4.103-.927-8.22.996-12.206 2.318-8.285 2.753-17.181 3.083-25.61 5.35-8.845 2.378-17.152 6.88-26.294 7.793-4.358.435-8.734.055-13.101.153-4.052.088-7.83 1.488-11.799 1.655-7.65.338-14.302 1.673-19.11 8.414z" fill="#a1616a" fill-rule="nonzero"/><path d="M411.128 422.31a20.931 20.931 0 00-2.156 20.014 6.782 6.782 0 001.562 2.416 7.318 7.318 0 002.981 1.39c9.207 2.62 19.035 2.105 28.465.464a50.08 50.08 0 009.374-2.388c4.668-1.784 8.836-4.636 12.953-7.482l8.706-5.999c2.819-1.942 5.66-3.894 8.808-5.257 4.822-2.082 10.162-2.68 15.415-2.675 4.511.006 9.012.435 13.444 1.284 2.953.57 6.49 1.16 8.567-.997 1.187-1.219 1.54-3.004 1.771-4.687a69.84 69.84 0 00-.051-19.735 2.56 2.56 0 00-.57-1.506 2.336 2.336 0 00-1.15-.524c-4.103-.927-8.22.996-12.206 2.318-8.285 2.753-17.181 3.083-25.61 5.35-8.845 2.378-17.152 6.88-26.294 7.793-4.358.435-8.734.055-13.101.153-4.052.088-7.83 1.488-11.799 1.655-7.65.338-14.302 1.673-19.11 8.414z" fill-opacity=".06" fill-rule="nonzero"/><path d="M418.61 412.51c-.218 1.025-.412 2.11-.107 3.111a5.799 5.799 0 001.855 2.494c7.88 7.056 19.142 8.517 29.67 9.662 2.851.31 5.753.62 8.576.106 2.573-.463 4.975-1.6 7.344-2.721 5.1-2.415 10.227-4.859 14.598-8.41 4.289-3.477 7.728-7.927 12.17-11.205 5.048-3.708 11.256-5.832 15.762-10.199a21.18 21.18 0 006.18-11.71c.51-3.046.343-6.157 0-9.226-.367-3.528-.955-7.116-2.634-10.24-1.942-3.617-5.206-6.347-8.65-8.59-7.288-4.739-15.87-7.678-24.57-7.604-12.054.107-23.18 7.121-31.831 14.997a93.688 93.688 0 00-21.79 29.638 90.498 90.498 0 00-6.573 19.897z" fill="#464353" fill-rule="nonzero"/><path d="M418.61 412.51c-.218 1.025-.412 2.11-.107 3.111a5.799 5.799 0 001.855 2.494c7.88 7.056 19.142 8.517 29.67 9.662 2.851.31 5.753.62 8.576.106 2.573-.463 4.975-1.6 7.344-2.721 5.1-2.415 10.227-4.859 14.598-8.41 4.289-3.477 7.728-7.927 12.17-11.205 5.048-3.708 11.256-5.832 15.762-10.199a21.18 21.18 0 006.18-11.71c.51-3.046.343-6.157 0-9.226-.367-3.528-.955-7.116-2.634-10.24-1.942-3.617-5.206-6.347-8.65-8.59-7.288-4.739-15.87-7.678-24.57-7.604-12.054.107-23.18 7.121-31.831 14.997a93.688 93.688 0 00-21.79 29.638 90.498 90.498 0 00-6.573 19.897z" fill-opacity=".06" fill-rule="nonzero"/><path d="M438.684 287.535c-1.822 1.228-2.457 3.602-2.69 5.79-.987 9.304 2.852 18.516 2.597 27.867-.204 7.44-2.976 14.538-5.711 21.46-4.664 11.807-7.093 24.63-8.035 37.291-.94 12.66-2.318 25.845-9.114 36.554-1.544 2.425-3.342 4.678-4.854 7.117-1.585 2.55-2.841 5.285-4.242 7.936a85.397 85.397 0 01-15.762 21.173c-1.854 1.808-3.82 3.56-6.184 4.603a12.456 12.456 0 01-9.67.102c-3.172-1.312-5.842-4.27-5.972-7.7-.116-3.07 1.716-5.837 3.551-8.294a136.138 136.138 0 0121.326-22.605c1.441-1.214 2.962-2.47 3.708-4.205.84-1.998.497-4.265.603-6.43.172-3.453 1.516-6.731 2.318-10.097 3.245-13.671-2.522-28.599 2.17-41.844 1.043-2.943 2.591-5.757 2.957-8.859.26-2.17-.278-4.594-1.636-6.221a8.18 8.18 0 01-2.007-5.267c0-.398 0-.793.046-1.182.566-6.068 1.127-12.165.82-18.252-.305-6.087-1.515-12.206-4.325-17.616-1.455-2.805-3.338-5.429-4.237-8.456-1.446-4.9-.111-10.2 2.044-14.835 1.683-3.625 3.927-7.08 7.06-9.564 5.824-4.613 14.54-5.146 20.914-1.33 4.7 2.809 7.918 7.533 10.528 12.35 1.873 3.518 3.825 6.5 3.797 10.514z" fill="#a1616a" fill-rule="nonzero"/><ellipse cx="782.53" cy="310.62" rx="37.85" ry="59.39" fill="#a1616a" transform="matrix(.4636 0 0 .4636 50.294 147.144)"/><path d="M368.32 435.023a6.123 6.123 0 01.927 5.1 8.918 8.918 0 005.697 1.659 17.619 17.619 0 005.865-1.35 19.376 19.376 0 004.561-2.391c2.42-1.79 4.173-4.349 5.564-7 .783-1.466 1.45-3.362.463-4.678a4.485 4.485 0 00-1.39-1.076 82.65 82.65 0 00-11.127-5.29 8.18 8.18 0 00-3.356-.75c-1.424.078-2.717.857-3.848 1.729a20.86 20.86 0 00-5.99 7.417c-.436.927-1.752 3.13-1.099 4.084.297.44 1.391.594 1.855.872.737.419 1.377.99 1.877 1.674z" fill="#fbbebe" fill-rule="nonzero"/><path d="M368.32 435.023a6.123 6.123 0 01.927 5.1 8.918 8.918 0 005.697 1.659 17.619 17.619 0 005.865-1.35 19.376 19.376 0 004.561-2.391c2.42-1.79 4.173-4.349 5.564-7 .783-1.466 1.45-3.362.463-4.678a4.485 4.485 0 00-1.39-1.076 82.65 82.65 0 00-11.127-5.29 8.18 8.18 0 00-3.356-.75c-1.424.078-2.717.857-3.848 1.729a20.86 20.86 0 00-5.99 7.417c-.436.927-1.752 3.13-1.099 4.084.297.44 1.391.594 1.855.872.737.419 1.377.99 1.877 1.674z" fill-opacity=".03" fill-rule="nonzero"/><path d="M387.517 424.281c7.844 1.456 15.057 5.248 22.767 7.292 3.12.826 6.333 1.391 9.314 2.606 2.98 1.214 5.79 3.291 7.074 6.25.543 1.419.903 2.902 1.07 4.413.335 2.137.608 4.524-.662 6.277-1.34 1.854-3.871 2.262-6.138 2.535-8.15.97-16.3 1.943-24.478 2.629-1.656.1-3.304.297-4.937.589-1.344.269-2.656.677-3.992.992-1.729.403-3.486.658-5.238.927-4.483.644-9.017 1.289-13.519.797-2.053-.227-4.353-.89-5.257-2.744a7.008 7.008 0 01-.463-3.023c-.024-2.753-.047-5.503 0-8.252.041-2.823.18-5.753 1.46-8.27a3.287 3.287 0 011.674-1.739 3.847 3.847 0 011.437-.13c2.41.084 4.904.186 7.06 1.262 1.71.848 3.102 2.262 4.845 3.031 3.3 1.465 7.283.413 10.625 1.79.78-2.402.603-4.83.024-7.292-.58-2.462-1.391-4.877-1.637-7.39a4.71 4.71 0 00-.315-1.613c-.25-.515-.167-1.016-.714-.937z" fill="#464353" fill-rule="nonzero"/><path d="M387.517 424.281c7.844 1.456 15.057 5.248 22.767 7.292 3.12.826 6.333 1.391 9.314 2.606 2.98 1.214 5.79 3.291 7.074 6.25.543 1.419.903 2.902 1.07 4.413.335 2.137.608 4.524-.662 6.277-1.34 1.854-3.871 2.262-6.138 2.535-8.15.97-16.3 1.943-24.478 2.629-1.656.1-3.304.297-4.937.589-1.344.269-2.656.677-3.992.992-1.729.403-3.486.658-5.238.927-4.483.644-9.017 1.289-13.519.797-2.053-.227-4.353-.89-5.257-2.744a7.008 7.008 0 01-.463-3.023c-.024-2.753-.047-5.503 0-8.252.041-2.823.18-5.753 1.46-8.27a3.287 3.287 0 011.674-1.739 3.847 3.847 0 011.437-.13c2.41.084 4.904.186 7.06 1.262 1.71.848 3.102 2.262 4.845 3.031 3.3 1.465 7.283.413 10.625 1.79.78-2.402.603-4.83.024-7.292-.58-2.462-1.391-4.877-1.637-7.39a4.71 4.71 0 00-.315-1.613c-.25-.515-.167-1.016-.714-.937z" fill-opacity=".06" fill-rule="nonzero"/><path d="M125.489 345.234c-1.581-.501-3.106.9-3.992 2.318-3.68 5.785-3.38 13.509-.435 19.702.7 1.571 1.666 3.01 2.855 4.252 1.595 1.571 3.649 2.577 5.563 3.708a41.862 41.862 0 0113.333 12.517c2.267 3.343 4.052 7.02 6.625 10.13 6.333 7.658 16.74 11.126 22.883 18.915 1.47 1.854 2.712 4.005 4.673 5.354a7.948 7.948 0 004.502 1.398c4.211 0 7.73-3.348 7.936-7.554 2.388-3.51 4.34-7.386 6.199-11.206a133.365 133.365 0 006.954-18.02c.69-2.178 1.358-4.371 2.239-6.49 2.174-5.23 5.637-9.962 6.86-15.488.492-2.216.613-4.52 1.327-6.672.64-1.93 1.733-3.68 3.19-5.1 4.82-4.686 7.417-11.515 11.25-17.032 1.558-2.23 3.176-4.455 4.206-6.977 1.029-2.522 1.423-5.41.463-7.96s-3.468-4.608-6.184-4.464a9.391 9.391 0 00-3.473 1.066 38.675 38.675 0 00-10.17 7.01 49.27 49.27 0 00-3.71 3.987c-5.665 6.768-10.097 14.983-10.486 23.8-.13 3.023.111 6.375-1.808 8.716-5.294 6.467-6.996 15.36-11.511 22.396-2.09 3.246-4.488 6.607-8.062 8.086a3.437 3.437 0 01-1.697.333c-1.428-.162-2.248-1.664-2.85-2.971a114.983 114.983 0 00-8.155-14.72c-1.215-1.854-2.555-3.755-4.497-4.844-1.326-.737-2.865-1.066-4.112-1.929-1.739-1.2-2.648-3.245-3.552-5.16a80.167 80.167 0 00-11.038-17.208c-2.012-2.397-4.663-4.872-7.77-4.515-2.957.347-4.765 3.458-7.556 4.622z" fill="#fbbebe" fill-rule="nonzero"/><path d="M125.489 345.234c-1.581-.501-3.106.9-3.992 2.318-3.68 5.785-3.38 13.509-.435 19.702.7 1.571 1.666 3.01 2.855 4.252 1.595 1.571 3.649 2.577 5.563 3.708a41.862 41.862 0 0113.333 12.517c2.267 3.343 4.052 7.02 6.625 10.13 6.333 7.658 16.74 11.126 22.883 18.915 1.47 1.854 2.712 4.005 4.673 5.354a7.948 7.948 0 004.502 1.398c4.211 0 7.73-3.348 7.936-7.554 2.388-3.51 4.34-7.386 6.199-11.206a133.365 133.365 0 006.954-18.02c.69-2.178 1.358-4.371 2.239-6.49 2.174-5.23 5.637-9.962 6.86-15.488.492-2.216.613-4.52 1.327-6.672.64-1.93 1.733-3.68 3.19-5.1 4.82-4.686 7.417-11.515 11.25-17.032 1.558-2.23 3.176-4.455 4.206-6.977 1.029-2.522 1.423-5.41.463-7.96s-3.468-4.608-6.184-4.464a9.391 9.391 0 00-3.473 1.066 38.675 38.675 0 00-10.17 7.01 49.27 49.27 0 00-3.71 3.987c-5.665 6.768-10.097 14.983-10.486 23.8-.13 3.023.111 6.375-1.808 8.716-5.294 6.467-6.996 15.36-11.511 22.396-2.09 3.246-4.488 6.607-8.062 8.086a3.437 3.437 0 01-1.697.333c-1.428-.162-2.248-1.664-2.85-2.971a114.983 114.983 0 00-8.155-14.72c-1.215-1.854-2.555-3.755-4.497-4.844-1.326-.737-2.865-1.066-4.112-1.929-1.739-1.2-2.648-3.245-3.552-5.16a80.167 80.167 0 00-11.038-17.208c-2.012-2.397-4.663-4.872-7.77-4.515-2.957.347-4.765 3.458-7.556 4.622z" fill-opacity=".03" fill-rule="nonzero"/><ellipse cx="161.5" cy="355.72" rx="26.36" ry="23.79" fill="#fbbebe" transform="matrix(.4636 0 0 .4636 50.294 147.144)"/><circle cx="186.22" cy="350.83" r="9.49" fill="#fbbebe" transform="matrix(.4636 0 0 .4636 50.294 147.144)"/><ellipse cx="164.96" cy="346.01" rx="36.31" ry="9.71" fill="#fbbebe" transform="matrix(.4636 0 0 .4636 50.294 147.144)"/><path d="M111.757 306.593c.41 1.298.732 2.623.965 3.964a23.667 23.667 0 01-3.644-4.789c-.272-.3-.49-.646-.645-1.02-1.502-3.495-2.526-7.033-2.526-10.862v-.002c0-13.062 10.748-23.81 23.81-23.81s23.81 10.748 23.81 23.81c0 10.707-7.221 20.16-17.552 22.973.728-2.346 1.725-4.636 1.855-7.07a5.098 5.098 0 00-.343-2.387 5.444 5.444 0 00-1.748-2.012c-2.652-2.026-6.064-2.912-9.402-2.856a25.8 25.8 0 00-9.666 2.318c-.96.413-2.109.969-3.245 1.35a8.42 8.42 0 01-1.669.393zM172.14 358.692c-1.525 2.443-4.784 3.19-7.649 2.971-5.34-.394-10.199-3.245-14.325-6.675-4.126-3.43-7.733-7.418-11.951-10.719-7.85-6.151-16.69-8.622-26.676-8.766 1.952-1.618 1.234-5.457 1.391-7.979.343-5.1.668-10.333 0-15.358a36.303 36.303 0 00-.24-1.61c.157.168.324.33.495.497a23.861 23.861 0 0022.758 5.804 18.54 18.54 0 00-.598 2.466c-.575 3.584.39 7.219 1.34 10.728.565 2.1 1.237 4.353 2.967 5.665 1.122.853 2.536 1.187 3.866 1.637 2.652.904 5.1 2.321 7.204 4.172 1.465 1.284 2.782 2.782 4.353 3.899a30.274 30.274 0 004.706 2.429 58.88 58.88 0 0111.312 6.857 3.71 3.71 0 011.47 1.743 2.866 2.866 0 01-.423 2.239z" fill="#fbbebe" fill-rule="nonzero"/><path d="M199.525 403.61c-.32 2.113-2.258 3.764-3.625 5.405-3.718 4.488-7.487 8.99-11.646 13.097-4.45 4.39-9.337 8.302-14.218 12.215l-6.333 5.067a7.967 7.967 0 01-2.694 1.623 4.92 4.92 0 01-3.467-.413 6.812 6.812 0 01-1.2-.737c-1.313-1.02-2.277-2.41-3.218-3.778a28400.52 28400.52 0 00-12.865-18.762 348.016 348.016 0 01-4.525-6.824c-.199-.297-.39-.598-.588-.895-1.363-2.086-2.722-4.172-4.117-6.189l-7.63-3.574-1.002-.464-1.182-.551c-1.572-.737-3.167-1.488-4.474-2.629a15.145 15.145 0 01-3.083-4.084 71.43 71.43 0 01-3.996-8.748c-3.245-8.192-6.101-16.731-6.222-25.549-.106-7.756 2.184-15.822 7.339-21.515a23.113 23.113 0 012.267-2.198c.992-.83 2.017-1.316 3.292-1.135 1.274.18 2.484.366 3.708.575 3.375.58 6.724 1.292 10.046 2.132 2.995.765 6.097 1.637 9.124 1.03.487-.098.969-.237 1.451-.362.394-.102.783-.2 1.187-.265.224-.038.45-.063.677-.074 1.608-.083 3.152.561 4.636 1.196 2.832 1.215 5.748 2.494 7.88 4.729 1.27 1.344 2.203 2.995 3.556 4.26 1.808 1.692 4.22 2.56 6.389 3.77.419.232.823.49 1.21.774.856.64 1.633 1.38 2.318 2.202 2.81 3.314 4.478 7.788 7.58 11.084a45.256 45.256 0 016.425 8.702c.292.524.575 1.052.853 1.59.463.895.895 1.803 1.293 2.721.102.237.204.464.297.71a42.492 42.492 0 011.525 4.25c1.053 3.5 1.753 7.28 4.09 10.089 1.631 1.951 3.893 3.245 5.799 4.928a10.256 10.256 0 012.818 3.833c.344.878.456 1.83.325 2.763z" fill="#fbbebe" fill-rule="nonzero"/><path d="M186.618 375.766a66.307 66.307 0 01-1.636 1.984 88.544 88.544 0 01-16.921 15.424c-3.811 2.661-7.83 5.02-11.84 7.376l-7.418 4.344c-3.101 1.822-6.245 3.657-9.684 4.705-1.104.33-2.258.594-3.385.904-.199-.297-.39-.598-.588-.895-1.363-2.086-2.722-4.172-4.117-6.189l-7.63-3.574a44.688 44.688 0 0011.06-9.912c4.636-5.716 8.201-12.234 11.715-18.71a14.067 14.067 0 001.442-3.338c.464-1.943.074-3.982-.496-5.892a31.069 31.069 0 00-12.424-16.75c-4.172-2.782-8.92-4.474-13.64-6.106-3.295-1.14-6.907-2.243-10.258-1.775a22.602 22.602 0 012.267-2.193c.992-.834 2.016-1.321 3.291-1.14 1.275.18 2.485.366 3.709.58 2.48.76 4.919 1.668 7.343 2.605a34.383 34.383 0 014.636 2.1 41.515 41.515 0 014.27 2.99 106.668 106.668 0 0012.665 8.303c5.1 2.814 10.454 5.1 15.804 7.417a4.2 4.2 0 001.831.464c.655-.001 1.23-.45 1.391-1.085a1.746 1.746 0 00-.222-.969c-.928-1.896-3.032-2.851-4.938-3.774-7.909-3.829-14.863-9.34-21.742-14.811a2.2 2.2 0 01-.436-.464l1.187-.264c7.7 5.53 15.83 10.432 24.315 14.659.449.228.898.45 1.35.667.324.162.644.32.973.464 2.285 1.122 4.57 2.318 6.29 4.172a19.206 19.206 0 012.782 4.224 79.406 79.406 0 014.84 11.126c.025.081.055.162.088.24.169.585.46 1.127.853 1.591.139.155.304.286.487.385.872.514 2.068.459 2.786 1.117z" fill-opacity=".06" fill-rule="nonzero"/><path d="M141.872 336.082a176.385 176.385 0 0024.316 14.655l1.349.672c2.596 1.27 5.299 2.531 7.269 4.636a19.335 19.335 0 012.782 4.228 78.565 78.565 0 014.835 11.126c.297.848.644 1.78 1.432 2.216.788.436 2.04.403 2.74 1.062-.63.788-1.27 1.567-1.933 2.318a88.417 88.417 0 01-16.624 15.076c-3.811 2.66-7.83 5.02-11.84 7.375l-7.418 4.344c-3.102 1.818-6.245 3.653-9.685 4.701-1.293.394-2.66.69-3.973 1.071-1.363-2.086-2.72-4.172-4.116-6.189l-8.632-4.043c4.635-2.623 8.678-6.355 12.053-10.505 4.636-5.711 8.201-12.23 11.715-18.706a14.15 14.15 0 001.442-3.337c.463-1.943.074-3.987-.496-5.897a31.067 31.067 0 00-12.392-16.704c-4.172-2.781-8.92-4.469-13.64-6.105-3.295-1.136-6.907-2.244-10.258-1.771a23.113 23.113 0 012.267-2.198c.992-.83 2.016-1.316 3.291-1.135 1.275.18 2.485.366 3.709.575 2.48.764 4.919 1.673 7.343 2.61a33.853 33.853 0 014.636 2.1 41.515 41.515 0 014.27 2.99 106.63 106.63 0 0012.684 8.28c5.1 2.818 10.454 5.122 15.804 7.417.567.292 1.193.45 1.83.464a1.431 1.431 0 001.392-1.085 1.739 1.739 0 00-.223-.964c-.927-1.896-3.032-2.856-4.937-3.774-7.91-3.83-14.863-9.346-21.743-14.835a2.05 2.05 0 01-.436-.464l1.187-.204z" fill="#789463" fill-rule="nonzero"/><circle cx="337.65" cy="399.07" r="62.77" fill="#789463" transform="matrix(.4636 0 0 .4636 50.294 147.144)"/><path d="M235.76 447.966c5.447-1.71 10.977-3.454 15.762-6.583 3.36-2.197 6.258-5.025 9.309-7.64 2.294-1.966 4.686-3.82 6.791-5.99a70.735 70.735 0 005.285-6.406 368.405 368.405 0 0111.53-14.335c2.128-2.499 4.376-5.044 7.348-6.434 5.28-2.48 11.478-.807 17.05.894 8.345 2.55 16.648 5.253 24.455 9.133 4.441 2.211 8.744 4.678 13.227 6.796 8.196 3.871 16.898 6.528 25.567 9.17.644.274 1.36.333 2.04.167a3 3 0 001.21-1.01 17.275 17.275 0 002.684-4.636.894.894 0 00-.218-1.201c-3.709-3.612-8.52-5.832-13.018-8.405-3.579-2.045-7.005-4.34-10.426-6.634-3.287-2.202-6.602-4.427-9.36-7.26-1.39-1.432-2.642-3.013-4.15-4.32a34.76 34.76 0 00-4.218-2.958 169.523 169.523 0 01-18.877-13.987c-4.534-3.876-8.248-8.869-13.092-12.346-2.972-2.132-6.43-4.075-10.065-3.685-4.423.463-7.686 4.172-10.77 7.371-10.36 10.76-23.434 18.46-34.996 27.922-9.439 7.714-18.26 16.88-29.758 20.95.515 1.706.695 3.412 1.215 5.1a53.33 53.33 0 002.415 6.88c.953 1.979 2.026 3.899 3.213 5.748l4.608 7.524c.927 1.53 1.896 3.083 3.222 4.298.695.667 2.016.908 2.016 1.877z" fill="#464353" fill-rule="nonzero"/><path d="M235.76 447.966c5.447-1.71 10.977-3.454 15.762-6.583 3.36-2.197 6.258-5.025 9.309-7.64 2.294-1.966 4.686-3.82 6.791-5.99a70.735 70.735 0 005.285-6.406 368.405 368.405 0 0111.53-14.335c2.128-2.499 4.376-5.044 7.348-6.434 5.28-2.48 11.478-.807 17.05.894 8.345 2.55 16.648 5.253 24.455 9.133 4.441 2.211 8.744 4.678 13.227 6.796 8.196 3.871 16.898 6.528 25.567 9.17.644.274 1.36.333 2.04.167a3 3 0 001.21-1.01 17.275 17.275 0 002.684-4.636.894.894 0 00-.218-1.201c-3.709-3.612-8.52-5.832-13.018-8.405-3.579-2.045-7.005-4.34-10.426-6.634-3.287-2.202-6.602-4.427-9.36-7.26-1.39-1.432-2.642-3.013-4.15-4.32a34.76 34.76 0 00-4.218-2.958 169.523 169.523 0 01-18.877-13.987c-4.534-3.876-8.248-8.869-13.092-12.346-2.972-2.132-6.43-4.075-10.065-3.685-4.423.463-7.686 4.172-10.77 7.371-10.36 10.76-23.434 18.46-34.996 27.922-9.439 7.714-18.26 16.88-29.758 20.95.515 1.706.695 3.412 1.215 5.1a53.33 53.33 0 002.415 6.88c.953 1.979 2.026 3.899 3.213 5.748l4.608 7.524c.927 1.53 1.896 3.083 3.222 4.298.695.667 2.016.908 2.016 1.877z" fill-opacity=".06" fill-rule="nonzero"/><path d="M362.673 439.135a6.136 6.136 0 01.927 5.1 8.898 8.898 0 005.684 1.673 17.866 17.866 0 005.878-1.345 19.569 19.569 0 004.562-2.392c2.424-1.79 4.172-4.348 5.586-7.005.784-1.46 1.451-3.356.44-4.673a4.363 4.363 0 00-1.39-1.075 82.76 82.76 0 00-11.103-5.29 8.27 8.27 0 00-3.357-.756c-1.428.08-2.721.863-3.852 1.734a20.865 20.865 0 00-5.985 7.418c-.436.927-1.753 3.134-1.104 4.089.297.44 1.391.593 1.855.867.729.415 1.362.98 1.859 1.655z" fill="#fbbebe" fill-rule="nonzero"/><path d="M383.9 428.166c7.845 1.46 15.058 5.248 22.768 7.292 3.12.826 6.333 1.391 9.314 2.606 2.98 1.214 5.79 3.291 7.074 6.249.542 1.42.902 2.903 1.07 4.413.335 2.138.608 4.525-.662 6.278-1.34 1.854-3.871 2.266-6.138 2.535-8.15.974-16.3 1.943-24.478 2.629-1.652.103-3.297.3-4.928.589-1.344.273-2.656.677-3.991.992-1.725.408-3.487.658-5.239.927-4.483.64-9.017 1.289-13.518.793-2.054-.227-4.354-.89-5.258-2.745a7.008 7.008 0 01-.463-3.022c0-2.75-.046-5.503 0-8.252.042-2.824.18-5.754 1.46-8.27a3.302 3.302 0 011.674-1.74 3.847 3.847 0 011.437-.13c2.41.084 4.905.186 7.06 1.262 1.711.848 2.944-1.688 4.687-.927 3.306 1.46 1.067-2.967 4.405-1.59.778-2.402 4.088-.974 3.514-3.436-.575-2.461 1.488-1.39 1.251-3.922a4.731 4.731 0 00-.315-1.613c-.26-.496-.176-.997-.723-.918z" fill="#464353" fill-rule="nonzero"/><path d="M148.933 279.84c-1.799 1.047-4.029.852-6.124.806a38.043 38.043 0 00-5.485.283 5.179 5.179 0 00-1.886.5 4.721 4.721 0 00-1.753 2.045 14.502 14.502 0 00-1.479 4.552c-.26 1.785-.231 3.737-1.344 5.15-1.516 1.925-3.88 1.628-6.027 2.008a16.222 16.222 0 00-5.29 2.021 13.077 13.077 0 00-6.128 8.999c-.06.422-.102.839-.12 1.26-.047 1.197.074 2.416-.084 3.589a6.205 6.205 0 01-.176.867c-.02.083-.047.165-.08.246a36.303 36.303 0 00-.24-1.61 23.667 23.667 0 01-3.644-4.788c-.271-.3-.49-.646-.644-1.02-1.502-3.495-2.527-7.033-2.527-10.862v-.001c0-13.06 10.746-23.806 23.806-23.806 7.59 0 14.741 3.631 19.22 9.76h.005z" fill-opacity=".06" fill-rule="nonzero"/><path d="M150.458 270.716c-1.191-2.759-3.709-4.715-6.296-6.25-5.1-3.04-10.968-4.95-16.92-5.03a43.67 43.67 0 00-8.939.928 43.748 43.748 0 00-8.377 2.378 29.846 29.846 0 00-11.502 8.493 11.54 11.54 0 00-1.924.31c-2.522.63-4.793 2.017-6.865 3.589a21.85 21.85 0 00-4.572 4.464 19.18 19.18 0 00-3.082 7.246c-1.767 8.14.408 16.541 2.002 24.714 1.595 8.173 2.527 17.102-1.39 24.446-1.48 2.781-3.58 5.145-5.156 7.853-1.576 2.707-2.624 5.966-1.729 8.97 1.066 3.654 4.655 5.971 6.528 9.258A11.154 11.154 0 0180.07 375.4c2.943 1.02 6.221-.079 8.873-1.71a15.682 15.682 0 005.224-4.957c3.334-5.396 1.855-12.364 3.014-18.6 1.544-8.158 7.774-15.437 6.917-23.698-.58-5.563-4.251-10.176-7.14-14.946a58.542 58.542 0 01-4.835-10.028c-.927-2.49-1.678-5.164-1.22-7.779a10.47 10.47 0 01.729-2.318v.264a17.756 17.756 0 001.585 6.954c3.45 7.047 12.633 9.643 16.523 16.453 1.135-1.238 2.318-2.536 2.781-4.149.408-1.437.2-2.967.26-4.46.162-4.172 2.698-8.103 6.249-10.254 1.63-.98 3.42-1.663 5.29-2.017 2.141-.385 4.506-.093 6.026-2.017 1.113-1.39 1.085-3.365 1.35-5.146a14.395 14.395 0 011.478-4.557 4.679 4.679 0 011.753-2.04 5.098 5.098 0 011.891-.5 37.975 37.975 0 015.48-.283c2.118.051 4.385.241 6.203-.848 2.559-1.558 3.147-5.267 1.956-8.048z" fill="#464353" fill-rule="nonzero"/><path d="M409.519 245.125v.19c-.84 7.232-7.793 6.899-9.416 18.294-.64 4.464-7.417 5.29-11.872 6.49-1.924-.649-3.871-1.21-5.795-1.91-4.45-1.609-1.34-4.024.565-6.62 6.236-8.502 7.418-20.12 14.497-27.932a26.11 26.11 0 0011.72 11.335c.097.065.199.112.301.153z" fill-opacity=".06" fill-rule="nonzero"/><path d="M409.681 240.976a29.41 29.41 0 01-.185 3.282c-1.66 14.636-14.185 25.82-28.915 25.82-15.963 0-29.1-13.136-29.1-29.1 0-15.963 13.137-29.1 29.1-29.1 15.963 0 29.099 13.135 29.1 29.098z" fill="#a1616a" fill-rule="nonzero"/><path d="M421.387 244.23c3.333-.162 6.537 1.146 9.615 2.43 12.206 5.1 24.515 10.24 35.423 17.728 5.378 3.708 10.362 7.918 15.336 12.141l20.44 17.366c3.926 3.334 7.88 6.7 11.033 10.779a73.626 73.626 0 015.067 7.881l3.032 5.169a46.32 46.32 0 013.245 6.328c1.558 3.992 2.138 8.646 5.28 11.562 2.11 1.961 5.017 2.759 7.594 4.052 2.578 1.293 5.1 3.565 5.058 6.449 0 1.854-1.122 3.523-1.965 5.192a20.813 20.813 0 00-2.114 11.279l-33.426-25.544c-1.33-1.015-2.72-2.063-4.357-2.406-2.124-.464-4.289.338-6.338 1.062a122.878 122.878 0 01-50.397 6.624c-7.552-.593-15.22-1.951-21.83-5.646-3.658-2.04-6.894-4.743-10.107-7.418-4.01-3.356-8.034-6.722-11.59-10.56-.927-1.025-1.891-2.151-2.128-3.524-.176-.992.042-2.002.125-3.004.585-7.033-5.257-12.888-7.037-19.716a18.103 18.103 0 015.66-17.928c3.983 3.487 3.84 9.61 3.376 14.882-.626 7.097 1.358 10.616.732 17.718 2.522-.092 2.063 1.53 3.139-.755 1.075-2.286 1.284-4.863 1.488-7.38a783.41 783.41 0 012.712-27.27c.528-4.538 1.13-9.067 1.71-13.601.353-2.759.306-5.336 1.762-7.784 2.021-3.389 5.457-5.915 9.462-6.106z" fill="#789463" fill-rule="nonzero"/><path d="M425.75 252.501c2.123-.668 4.408-.056 6.54.58 3.771 1.118 7.52 2.3 11.248 3.546 3.045 1.015 6.133 2.105 8.71 4.02 2.675 1.984 4.636 4.742 6.579 7.454 1.39 1.952 2.781 3.927 3.709 6.143 1.205 2.902 1.53 6.082 1.854 9.207a12.08 12.08 0 01-.051 4.065 9.874 9.874 0 01-2.24 3.908 26.74 26.74 0 01-5.497 4.928c-5.457 3.672-12.054 5.202-18.48 6.55-5.734 1.202-11.51 2.319-17.36 2.68-2.277.144-4.92 0-6.31-1.798a7.101 7.101 0 01-.928-1.827 69.144 69.144 0 01-4.343-28.386c.05-1.76.322-3.509.81-5.201a25.004 25.004 0 011.786-3.918c1.757-3.324 3.606-6.763 6.634-8.989 3.166-2.318 7.269-3.05 11.196-2.902" fill="#a1616a" fill-rule="nonzero"/><path d="M447.107 286.881c-1.822 1.229-2.457 3.602-2.689 5.79-.987 9.305 2.851 18.516 2.597 27.867-.204 7.418-2.977 14.538-5.712 21.46-4.664 11.808-7.093 24.63-8.034 37.291-.941 12.661-2.318 25.846-9.114 36.555-1.544 2.424-3.343 4.677-4.854 7.116-1.586 2.55-2.842 5.285-4.242 7.937a85.397 85.397 0 01-15.762 21.172c-1.855 1.808-3.82 3.56-6.185 4.603a12.456 12.456 0 01-9.67.102c-3.171-1.312-5.841-4.27-5.971-7.7-.116-3.069 1.715-5.837 3.55-8.294a136.138 136.138 0 0121.326-22.604c1.442-1.215 2.963-2.471 3.709-4.205.84-1.998.496-4.265.603-6.43.171-3.454 1.516-6.732 2.318-10.097 3.245-13.672-2.522-28.6 2.17-41.844 1.042-2.944 2.59-5.758 2.957-8.86.26-2.17-.283-4.594-1.637-6.221a8.21 8.21 0 01-2.012-5.266c0-.4 0-.793.051-1.183.566-6.068 1.127-12.164.821-18.251-.306-6.087-1.516-12.207-4.325-17.617-1.456-2.805-3.338-5.429-4.238-8.456-1.446-4.9-.11-10.199 2.045-14.835 1.683-3.625 3.927-7.079 7.06-9.564 5.823-4.613 14.539-5.146 20.913-1.33 4.701 2.81 7.918 7.533 10.528 12.35 1.873 3.519 3.848 6.5 3.797 10.514z" fill-opacity=".06" fill-rule="nonzero"/><path d="M448.164 286.881c-1.822 1.229-2.457 3.602-2.689 5.79-.987 9.305 2.851 18.516 2.597 27.867-.204 7.418-2.977 14.538-5.712 21.46-4.664 11.808-7.088 24.63-8.034 37.291-.946 12.661-2.318 25.846-9.114 36.555-1.544 2.424-3.338 4.677-4.854 7.116-1.581 2.55-2.842 5.285-4.242 7.937a85.5 85.5 0 01-15.762 21.172c-1.855 1.808-3.825 3.56-6.19 4.603a12.456 12.456 0 01-9.67.102c-3.166-1.312-5.836-4.27-5.966-7.7-.12-3.069 1.71-5.837 3.55-8.294a136.1 136.1 0 0121.326-22.604c1.442-1.215 2.967-2.471 3.709-4.205.844-1.998.496-4.265.603-6.43.171-3.454 1.516-6.732 2.318-10.097 3.245-13.672-2.522-28.6 2.17-41.844 1.042-2.944 2.595-5.758 2.962-8.86.255-2.17-.283-4.594-1.637-6.221a8.162 8.162 0 01-2.068-5.266c0-.4 0-.793.051-1.183.561-6.068 1.122-12.164.816-18.251-.306-6.087-1.516-12.207-4.325-17.617-1.456-2.805-3.338-5.429-4.237-8.456-1.447-4.9-.111-10.199 2.044-14.835 1.688-3.625 3.927-7.079 7.06-9.564 5.824-4.613 14.54-5.146 20.914-1.33 4.7 2.81 7.918 7.533 10.528 12.35 1.919 3.519 3.885 6.5 3.852 10.514z" fill="#a1616a" fill-rule="nonzero"/><path d="M495.047 407.94l-.398.12" fill="none"/><path d="M413.849 428.625c.017-.156.045-.311.083-.464" fill="#464353" fill-rule="nonzero"/><path d="M513.244 396.813c1.335-1.544 3.393-2.234 5.373-2.749a53.922 53.922 0 019.735-1.585c2.04-.22 4.103-.093 6.101.375 1.975.542 3.848 1.72 4.85 3.505.885 1.576 1.024 3.449 1.14 5.252.24 3.71.463 7.418-.149 11.071-.394 2.318-1.13 4.562-1.608 6.861-1.549 7.538-.204 15.34-.343 23.036-.033 1.641-.14 3.324-.83 4.812-.737 1.581-2.063 2.782-3.357 3.969-1.423 1.284-2.87 2.577-4.585 3.435-2.54 1.275-5.465 1.488-8.307 1.576-1.73.051-3.51.056-5.1-.58-1.59-.635-3.022-2.062-3.138-3.792-.186-2.934 3.124-4.853 4.07-7.635.751-2.216-.111-4.664-1.307-6.68a21.141 21.141 0 00-7.932-7.673c-1.215-.667-2.508-1.228-3.52-2.17-1.01-.94-1.696-2.4-1.265-3.708.515-1.581 2.355-2.318 4.01-2.476 1.655-.157 3.403-.037 4.891-.774 1.326-.654 2.249-1.915 2.884-3.245a12.068 12.068 0 00.524-9.073 11.144 11.144 0 00-1.725-3.138c-.695-.89-2.123-1.641-2.62-2.615-.88-1.752 1.025-4.608 2.208-5.999z" fill="#789463" fill-rule="nonzero"/><path d="M486.304 329.63c-7.658-6.77-18.335-8.61-28.349-10.664a338.164 338.164 0 01-15.4-3.523c-3.357-.853-6.722-1.761-10.2-1.998-3.476-.236-7.055.25-10.032 2.021-2.976 1.771-5.22 4.98-5.238 8.442 0 1.391.329 2.754.227 4.131-.162 2.216-1.39 4.172-2.23 6.245a16.413 16.413 0 00-.56 10.273c1.483 5.41 5.757 10.176 5.386 15.762-.616 9.35-.426 19.123 1.493 28.28 1.92 9.155 4.316 18.353 4.26 27.722-.055 9.37-2.892 19.22-9.888 25.46a38.215 38.215 0 0016.842 9.203c5.392 1.35 11.803 1.215 15.642-2.805.89-.927 1.627-2.165 1.442-3.44a6.729 6.729 0 00-.997-2.248c-2.638-4.724-2.318-10.547-1.15-15.822 1.169-5.276 3.167-10.403 3.672-15.79.37-3.908-.046-7.881.7-11.739.575-2.953 1.817-5.734 2.564-8.65 2.202-8.65-.112-17.733-2.411-26.35 1.924 4.426 5.563 7.88 9.327 10.884 5.712 4.553 12.62 8.572 19.88 7.765 6.462-.723 11.965-5.215 15.762-10.486.032-6.096 2.146-11.859 1.77-17.941a45.56 45.56 0 00-1.427-7.904c-.71-2.893-1.438-5.814-2.782-8.47-1.775-3.528-5.345-5.749-8.303-8.359z" fill-opacity=".06" fill-rule="nonzero"/><path d="M487.89 329.63c-7.659-6.77-18.33-8.61-28.35-10.664a336.98 336.98 0 01-15.395-3.523c-3.357-.853-6.727-1.761-10.2-1.998-3.472-.236-7.05.25-10.027 2.021-2.976 1.771-5.224 4.98-5.238 8.442 0 1.391.324 2.754.222 4.131-.157 2.216-1.414 4.172-2.23 6.245a16.416 16.416 0 00-.556 10.273c1.479 5.41 5.753 10.176 5.387 15.762-.621 9.35-.431 19.123 1.488 28.28 1.92 9.155 4.316 18.353 4.26 27.722-.055 9.37-2.91 19.188-9.911 25.42a38.239 38.239 0 0016.842 9.201c5.392 1.35 11.808 1.215 15.642-2.804.89-.928 1.627-2.165 1.442-3.44a6.729 6.729 0 00-.997-2.249c-2.638-4.724-2.318-10.546-1.15-15.822 1.168-5.276 3.167-10.403 3.677-15.79.366-3.908-.051-7.881.7-11.738.57-2.953 1.817-5.735 2.559-8.651 2.202-8.65-.107-17.732-2.411-26.35 1.924 4.427 5.563 7.88 9.332 10.885 5.712 4.552 12.614 8.571 19.874 7.765 6.463-.723 11.966-5.216 15.763-10.487.027-6.096 2.141-11.858 1.766-17.94a45.56 45.56 0 00-1.428-7.905c-.705-2.893-1.437-5.814-2.782-8.47-1.724-3.486-5.322-5.707-8.28-8.317z" fill="#a1616a" fill-rule="nonzero"/><path d="M434.688 446.617a28.947 28.947 0 01-8.628-8.08c-.825-1.169-1.567-2.411-2.596-3.403-1.03-.992-2.425-1.73-3.848-1.581-1.609.167-2.897 1.39-3.917 2.652-2.735 3.389-4.497 7.533-7.534 10.662-3.504 3.621-8.395 5.564-13.277 6.806s-9.92 1.896-14.705 3.468c-1.502.491-3.083 1.159-3.894 2.517-1.03 1.73-.464 3.996.62 5.711 1.999 3.246 5.439 5.336 9.027 6.579 3.588 1.242 7.385 1.738 11.126 2.47 6.611 1.294 13.384 3.367 19.963 1.906 2.624-.584 5.1-1.715 7.75-2.207 6.028-1.121 12.244 1.146 18.294.237 2.926-.44 5.689-1.609 8.345-2.925a11.511 11.511 0 003.57-2.425c.969-1.075 1.553-2.6 1.154-3.992-.227-.802-.751-1.478-1.099-2.234-.547-1.168-.658-2.48-.788-3.764-.5-4.889-1.35-9.734-2.54-14.502-.413-1.664-1.03-3.518-2.583-4.246a1.39 1.39 0 00-1.033-.116c-.552.209-.733.876-.9 1.437a8.866 8.866 0 01-8.487 6.355 8.85 8.85 0 01-6.895-3.304" fill="#789463" fill-rule="nonzero"/><path d="M409.681 240.976a29.41 29.41 0 01-.185 3.282 9.395 9.395 0 01-8.067-2.684c-.978-1.038-1.71-2.295-2.68-3.342-.968-1.048-2.317-1.92-3.708-1.808-1.187.088-2.216.839-3.027 1.71a9.863 9.863 0 00-2.258 3.992c-.31 1.052-.464 2.248-1.335 2.948-.872.7-1.943.654-2.976.617-1.34-.047-2.731-.111-3.913-.742-2.225-1.2-2.976-3.95-3.802-6.342-1.39-4.02-4.52-11.622-9.383-12.433-2.318-.385-5.136.839-6.954 2.16-2.74 1.989-4.76 3.277-8.303 3.222 4.022-11.737 15.127-19.67 27.533-19.67 15.96 0 29.097 13.13 29.105 29.09h-.047z" fill-opacity=".06" fill-rule="nonzero"/><path d="M353.049 230.494a6.998 6.998 0 01-2.457-.39c-2.249-.88-3.343-3.476-3.533-5.882-.297-3.667.927-7.265 2.156-10.737.26-.756.57-1.567 1.247-1.989a4.333 4.333 0 011.757-.44c3.328-.464 6.217-2.5 8.674-4.78 2.457-2.28 4.673-4.868 7.417-6.768 7.279-5.021 18.08-4.085 24.376 2.109 2.494 2.448 4.636 5.767 8.094 6.342 1.994.329 4.13-.357 6.027.385 1.39.542 2.383 1.77 3.18 3.027 2.587 4.061 3.802 8.873 4.205 13.671.403 4.799.033 9.625-.343 14.423a3.765 3.765 0 01-.533 2.044 3.12 3.12 0 01-1.09.835 9.38 9.38 0 01-10.797-1.818c-.983-1.033-1.71-2.29-2.68-3.342-.968-1.052-2.317-1.915-3.708-1.804-1.182.089-2.22.84-3.027 1.711a9.863 9.863 0 00-2.258 3.992c-.306 1.052-.464 2.248-1.335 2.944-.872.695-1.943.658-2.981.62-1.335-.05-2.726-.11-3.908-.746-2.23-1.196-2.981-3.945-3.802-6.337-1.39-4.02-4.515-11.627-9.383-12.434-2.318-.389-5.136.84-6.954 2.16-2.781 1.976-4.784 3.264-8.344 3.204z" fill="#464353" fill-rule="nonzero"/><path d="M199.525 403.61c-.32 2.113-2.258 3.764-3.625 5.405-3.718 4.488-7.487 8.99-11.646 13.097-4.45 4.39-9.337 8.302-14.218 12.215l-6.333 5.067a7.967 7.967 0 01-2.694 1.623 4.92 4.92 0 01-3.467-.413 6.47 6.47 0 01.296-.528l7.594-12.726c1.493-2.494 2.471-4.766 4.172-7.107 2.564-3.505 5.151-7.028 8.308-10 3.992-3.76 9.11-6.49 13.857-9.206.686-2.059 3.56-2.63 5.503-1.656.72.374 1.368.871 1.914 1.47.349.875.465 1.825.339 2.758z" fill-opacity=".06" fill-rule="nonzero"/><path d="M165.96 427.874l-7.593 12.73c-.31.515-.63 1.099-.496 1.683.17.49.496.912.927 1.2 2.911 2.37 6.138 4.869 7.051 8.508.654 2.596 0 5.377.585 7.983 1.07 4.7 5.794 7.556 10.263 9.364 10.014 4.052 21.131 5.61 31.77 3.71 10.64-1.902 20.737-7.316 27.626-15.642 2.114-2.56 3.922-5.36 5.93-8.002 5.563-7.302 12.623-13.296 19.628-19.23 9.017-7.64 14.33-19.035 22.253-27.816 1.441-1.599 3.031-3.245 5.1-3.773 1.158-.292 2.78.139 2.827 1.335.107 2.318 1.97 4.214 3.245 6.152 4.803 7.343 9.828 14.914 17.25 19.596 4.062 2.568 8.665 4.14 13.255 5.563 11.636 3.625 23.5 6.49 35.349 9.328a19.809 19.809 0 012.142-3.38c1.228-1.507 2.846-2.656 4.08-4.172 2.257-2.731 3.05-6.342 3.773-9.81-7.08-4.335-14.344-8.808-21.326-13.314-3.514-2.263-7.05-4.576-9.897-7.636-1.855-2.012-3.412-4.316-5.271-6.342a53.778 53.778 0 00-6.129-5.438l-16.69-13.365a685.92 685.92 0 01-14.37-11.85c-2.639-2.234-5.564-4.585-9.013-4.691-2.953-.093-5.67 1.488-8.21 3.008a987.17 987.17 0 01-45.433 25.6c-3.11 1.641-6.235 3.273-9.202 5.16a62.036 62.036 0 00-15.169 13.62c-.783.979-1.775 2.091-3.018 1.943a2.712 2.712 0 01-.969-.339c-1.914-1.024-3.087-3.004-4.172-4.881-1.085-1.878-2.295-3.853-4.237-4.826-1.943-.974-4.812-.404-5.503 1.66-4.77 2.795-9.87 5.502-13.866 9.262-3.157 2.972-5.744 6.49-8.308 10-1.71 2.34-2.693 4.612-4.181 7.102z" fill="#464353" fill-rule="nonzero"/><path d="M153.522 350.231s7.636 3.39 13.11 7.214" fill-opacity=".06" fill-rule="nonzero"/><path d="M535.923 357.2c.139 4.324.25 8.659.199 12.98-.028 2.29-.125 4.677-1.224 6.685-.783 1.442-2.021 2.568-3.245 3.671l-7.636 6.922c-2.368 2.146-4.923 4.385-8.08 4.919-3.611.612-7.14-1.145-10.612-2.318a34.83 34.83 0 00-10.848-1.822c-2.114 0-4.246.167-6.332-.167a25.934 25.934 0 01-4.423-1.257l-6.894-2.392c.195-1.738 1.855-2.846 3.245-3.945 4.938-4.005 7.103-10.445 8.66-16.606a99.012 99.012 0 002.698-14.654c.237-2.448.344-4.937-.171-7.343a29.188 29.188 0 00-2.04-5.628l-2.424-5.466c-1.391-3.088-4.173-4.46-7.005-6.282 4.274 1.623 9.485 2.258 12.735 5.475a8.432 8.432 0 002.197 1.78c.885.422 1.891.464 2.86.622 4.826.723 8.93 3.755 12.916 6.56a215.147 215.147 0 0015.048 9.684c2.318 1.363 4.71 2.703 6.662 4.562 1.952 1.859 3.482 4.334 3.607 7.028" fill="#464353" fill-rule="nonzero"/><path d="M120.19 349.605c-6.078 1.201-9.24 8.345-8.882 14.525a23.65 23.65 0 006.406 14.765c2.536 2.666 5.698 4.724 7.988 7.603 3.384 4.247 4.562 9.86 7.59 14.372 2.197 3.273 5.28 5.84 8.344 8.303a323.386 323.386 0 0021.886 16.007c3.06 2.045 6.407 4.113 10.088 4.034 3.468-.074 6.662-2.11 8.924-4.743 2.262-2.633 3.709-5.832 5.178-8.984 5.295-11.544 10.626-23.212 13.157-35.655.793-3.908 1.326-7.937 3.097-11.511 1.39-2.782 3.45-5.165 5.285-7.677a52.964 52.964 0 008.938-19.972c1.01-4.7 1.35-9.736-.31-14.232-1.66-4.497-5.689-8.396-10.487-8.748-3.797-.279-7.524 1.669-10.074 4.501-2.55 2.833-4.052 6.453-5.076 10.12a48.485 48.485 0 00-1.67 16.226c.298 4.409 1.197 8.86.437 13.217-.538 3.074-1.878 5.943-3.204 8.771-3.426 7.297-6.907 14.687-12.086 20.862-1.687 2.012-4.01 4.047-6.592 3.574-3.57-.649-4.515-5.169-6.277-8.344-2.16-3.894-6.259-6.236-9.471-9.328-4.571-4.404-7.311-10.31-10.561-15.762s-7.455-10.834-13.444-12.925c-5.99-2.09-13.973.593-15.512 6.75" fill-opacity=".06" fill-rule="nonzero"/><path d="M124.775 353.838c-6.082 1.2-13.824 1.984-13.444 8.173a23.602 23.602 0 006.407 14.766c2.535 2.67 5.697 4.728 7.987 7.607 3.385 4.247 4.562 9.856 7.59 14.372 2.197 3.277 5.28 5.846 8.344 8.303a321.169 321.169 0 0021.886 16.008c3.06 2.049 6.407 4.116 10.088 4.037 3.468-.074 6.662-2.114 8.924-4.742 2.263-2.629 3.71-5.832 5.179-8.99 5.294-11.543 10.625-23.211 13.156-35.654.793-3.904 1.326-7.937 3.097-11.507 1.391-2.781 3.45-5.164 5.285-7.681a52.906 52.906 0 008.938-19.967c1.011-4.706 1.35-9.736-.31-14.237-1.66-4.502-5.689-8.391-10.487-8.748-3.797-.279-7.524 1.673-10.074 4.501-2.55 2.828-4.051 6.453-5.076 10.125a48.462 48.462 0 00-1.669 16.226c.297 4.413 1.196 8.864.436 13.217-.538 3.078-1.878 5.948-3.204 8.776-3.426 7.297-6.907 14.682-12.086 20.861-1.687 2.012-4.01 4.043-6.592 3.575-3.57-.654-4.515-5.174-6.277-8.345-2.16-3.894-6.258-6.235-9.471-9.327-4.571-4.4-7.311-10.31-10.56-15.763-3.25-5.452-7.455-10.83-13.445-12.925-5.99-2.095 1.511 11.326-.032 17.482" fill-opacity=".06" fill-rule="nonzero"/><path d="M120.19 348.544c-6.078 1.2-9.24 8.344-8.882 14.524a23.647 23.647 0 006.406 14.77c2.536 2.666 5.698 4.724 7.988 7.603 3.384 4.247 4.562 9.86 7.59 14.372 2.197 3.277 5.28 5.846 8.344 8.307a322.21 322.21 0 0021.886 16.004c3.06 2.049 6.407 4.116 10.088 4.037 3.468-.074 6.662-2.109 8.924-4.742 2.262-2.633 3.709-5.832 5.178-8.985 5.295-11.543 10.626-23.212 13.157-35.66.793-3.903 1.326-7.936 3.097-11.506 1.39-2.781 3.45-5.164 5.285-7.681a52.906 52.906 0 008.938-19.967c1.01-4.706 1.35-9.736-.31-14.237-1.66-4.502-5.689-8.391-10.487-8.744-3.797-.283-7.524 1.67-10.074 4.502s-4.052 6.453-5.076 10.12a48.485 48.485 0 00-1.67 16.226c.298 4.409 1.197 8.86.437 13.212-.538 3.078-1.878 5.948-3.204 8.776-3.426 7.297-6.907 14.687-12.086 20.862-1.687 2.012-4.01 4.042-6.592 3.574-3.57-.654-4.515-5.169-6.277-8.345-2.16-3.898-6.259-6.24-9.471-9.327-4.571-4.404-7.311-10.31-10.561-15.762s-7.455-10.83-13.444-12.92c-5.99-2.091-13.973.593-15.512 6.75" fill="#fbbebe" fill-rule="nonzero"/><path d="M96.96 311.512a58.542 58.542 0 01-4.836-10.028l-.158-.463a15.02 15.02 0 01-2.443-3.519 17.74 17.74 0 01-1.585-6.954v-.264a10.47 10.47 0 00-.728 2.318c-.464 2.615.301 5.285 1.22 7.779a58.713 58.713 0 004.834 10.028c2.88 4.812 6.556 9.448 7.126 14.969.858 8.261-5.373 15.535-6.912 23.699-1.178 6.235.315 13.203-3.018 18.6a15.618 15.618 0 01-5.225 4.95 14.78 14.78 0 01-4.279 1.855 9.946 9.946 0 01-.89.927c2.944 1.02 6.221-.079 8.873-1.71a15.682 15.682 0 005.225-4.956c3.333-5.397 1.854-12.364 3.013-18.6 1.544-8.16 7.775-15.438 6.917-23.699-.575-5.554-4.246-10.185-7.135-14.932zM150.458 270.716c-1.191-2.759-3.709-4.715-6.296-6.25a36.449 36.449 0 00-10.574-4.265 37.807 37.807 0 016.87 3.204c2.587 1.539 5.1 3.49 6.3 6.254 1.201 2.763.603 6.49-1.974 8.03-1.818 1.089-4.085.894-6.203.847a37.324 37.324 0 00-5.48.279 5.275 5.275 0 00-1.891.5 4.709 4.709 0 00-1.753 2.063 14.404 14.404 0 00-1.483 4.557c-.26 1.78-.237 3.732-1.35 5.146-1.51 1.924-3.875 1.632-6.026 2.012a16.222 16.222 0 00-5.29 2.022c-3.55 2.146-6.087 6.068-6.249 10.254-.056 1.493.148 3.018-.255 4.455a7.354 7.354 0 01-1.205 2.318c.821.878 1.54 1.847 2.142 2.889 1.135-1.238 2.318-2.536 2.781-4.15.408-1.437.2-2.967.26-4.46.162-4.172 2.698-8.103 6.249-10.254 1.63-.98 3.42-1.663 5.29-2.017 2.141-.384 4.506-.092 6.026-2.016 1.113-1.391 1.085-3.366 1.35-5.146a14.395 14.395 0 011.478-4.557 4.679 4.679 0 011.753-2.04 5.098 5.098 0 011.891-.5 37.975 37.975 0 015.48-.284c2.118.051 4.385.241 6.203-.848 2.559-1.553 3.147-5.262 1.956-8.043z" fill-rule="nonzero"/><path d="M120.102 315.012s5.475 4.71 15.873 1.854c0-.009-6.439 2.527-15.873-1.854zM413.747 235.552c.01.716-.182 1.42-.556 2.03a3.102 3.102 0 01-1.09.83 9.37 9.37 0 01-10.792-1.812c-.983-1.039-1.71-2.318-2.68-3.343-.969-1.024-2.318-1.92-3.709-1.808-1.182.093-2.216.844-3.027 1.71a10.038 10.038 0 00-2.258 3.992c-.3 1.057-.463 2.249-1.33 2.949-.867.7-1.942.654-2.98.616-1.34-.046-2.732-.106-3.909-.741-2.23-1.196-2.981-3.95-3.806-6.338-1.39-4.024-4.516-11.627-9.379-12.438-2.318-.385-5.14.844-6.954 2.16-2.74 1.99-4.76 3.278-8.307 3.246a7.087 7.087 0 01-2.457-.39c-2.04-.802-3.13-3.018-3.459-5.215a15.424 15.424 0 00-.078 3.036c.194 2.402 1.288 4.998 3.537 5.883.79.274 1.621.406 2.457.39 3.546.055 5.563-1.233 8.307-3.222 1.822-1.317 4.636-2.55 6.954-2.16 4.845.788 7.997 8.39 9.36 12.41.826 2.392 1.577 5.146 3.806 6.342 1.178.63 2.569.695 3.909.742 1.038.037 2.178.041 2.98-.617s1.03-1.896 1.33-2.948a10.006 10.006 0 012.259-3.992c.81-.867 1.854-1.618 3.027-1.71 1.428-.112 2.781.755 3.709 1.807.927 1.053 1.696 2.318 2.68 3.343a9.37 9.37 0 0010.792 1.813c.42-.194.791-.478 1.09-.83a3.786 3.786 0 00.555-2.036c.363-3.904.518-7.826.464-11.747-.037 2.684-.236 5.368-.445 8.048z" fill-opacity=".06" fill-rule="nonzero"/><path d="M91.93 433.321s.736-.82-.65-1.145v-1.349h.835a7.137 7.137 0 00-5.642-6.954v-1.636h.218v-2.128h-5.364v2.128h.153v1.655a7.14 7.14 0 00-5.563 6.954h.737v1.293s-1.757.83 0 2.318 1.483 2.564 1.483 2.564-.737 2.781-2.216 3.143v25.794c0 3.143 2.587 5.73 5.73 5.73h4.53c3.146 0 5.734-2.588 5.734-5.734v-25.79s-2.591-1.943-2.127-3.143a29.045 29.045 0 012.141-3.7z" fill="#464353" fill-rule="nonzero"/><defs><linearGradient id="_Linear1" x1="0" y1="0" x2="1" y2="0" gradientUnits="userSpaceOnUse" gradientTransform="matrix(0 -610.9 610.9 0 578.95 774.32)"><stop offset="0" stop-color="gray" stop-opacity=".25"/><stop offset=".54" stop-color="gray" stop-opacity=".12"/><stop offset="1" stop-color="gray" stop-opacity=".1"/></linearGradient></defs></svg>