<svg xmlns="http://www.w3.org/2000/svg" width="100" height="100" viewBox="0 0 600 600" stroke-linejoin="round"><style>.a{fill:rgb(255,184,184);}.b{fill:rgb(120,148,99);}.c{fill:rgb(47,46,65);}.d{fill:rgb(159,97,106);}</style><path d="M110.9-161.1C155.2-144.2 210.4-132.7 238.6-100.4 266.8-68 268-14.6 251.7 29.8 235.4 74.3 201.6 109.8 167.7 140.6 133.7 171.4 99.7 197.5 58.8 217.2 17.9 237-29.8 250.4-70.7 239.1 -111.6 227.9-145.7 191.9-175.1 154 -204.4 116-228.9 76.2-231.4 35.4 -233.8-5.3-214.2-47.1-188.6-79 -162.9-110.9-131.2-132.8-98.8-155.2 -66.3-177.5-33.2-200.3 0.1-200.4 33.3-200.5 66.7-178.1 110.9-161.1Z" fill="rgb(8,105,114)"/><path d="M483.6 436.5C483.6 436.5 489.9 390.4 500.4 402.9 510.9 415.5 500.4 434.4 500.4 434.4L492 444.8 483.6 438.6 483.6 436.5Z" class="a"/><path d="M458.5 451.1C458.5 451.1 479.4 428.1 483.6 432.3 487.8 436.5 500.4 438.6 498.3 446.9 496.2 455.3 452.2 482.6 452.2 482.6L458.5 451.1Z" class="b"/><path d="M458.5 451.1C458.5 451.1 479.4 428.1 483.6 432.3 487.8 436.5 500.4 438.6 498.3 446.9 496.2 455.3 452.2 482.6 452.2 482.6L458.5 451.1Z" fill-opacity="0.1"/><path d="M339.1 449L339.1 465.8C339.1 465.8 337 503.5 349.5 501.4 362.1 499.3 355.8 467.9 355.8 467.9L353.7 449 339.1 449Z" class="a"/><path d="M345.3 570.6C345.3 570.6 326.5 599.9 320.2 602 313.9 604.1 280.4 622.9 276.2 641.8L246.9 679.5 261.5 698.4C261.5 698.4 328.6 627.1 347.4 620.8 366.3 614.6 385.2 583.1 385.2 583.1L345.3 570.6Z" class="a"/><path d="M494.1 522.4C494.1 522.4 533.9 528.7 527.6 553.8 521.3 578.9 460.6 631.3 460.6 631.3L458.5 643.9 435.4 648.1 425 637.6 427.1 631.3C427.1 631.3 452.2 608.3 454.3 599.9 456.4 591.5 479.4 558 489.9 555.9L475.2 547.5 494.1 522.4Z" class="a"/><path d="M253.2 679.5C253.2 679.5 261.5 666.9 249 669 236.4 671.1 228 673.2 228 681.6 228 690 238.5 748.6 251.1 744.5 263.6 740.3 253.2 721.4 253.2 721.4 253.2 721.4 259.4 704.6 263.6 702.6 267.8 700.5 267.8 690 263.6 690 259.4 690 251.1 683.7 253.2 679.5Z" class="c"/><path d="M431.3 633.4C431.3 633.4 431.3 622.9 422.9 633.4 414.5 643.9 410.3 652.3 418.7 658.6 427.1 664.8 456.4 679.5 456.4 679.5 456.4 679.5 487.8 685.8 483.6 671.1 483.6 671.1 462.7 660.6 462.7 652.3 462.7 643.9 462.7 629.2 456.4 633.4 450.1 637.6 431.3 639.7 431.3 633.4Z" class="c"/><path d="M391.4 476.3C391.4 476.3 362.1 480.5 364.2 522.4 364.2 522.4 326.5 560.1 337 572.7 347.4 585.2 370.5 608.3 378.9 602 387.3 595.7 412.4 547.5 412.4 547.5 412.4 547.5 471.1 568.5 481.5 558 492 547.5 502.5 522.4 502.5 522.4L450.1 495.1 391.4 476.3Z" class="c"/><circle cx="413.2" cy="176.4" r="25.1" class="a"/><path d="M454.3 333.8C454.3 333.8 439.6 356.9 435.4 358.9 431.3 361 464.8 382 464.8 382 464.8 382 464.8 354.8 475.2 348.5L454.3 333.8Z" class="a"/><path d="M452.2 356.9C452.2 356.9 418.7 346.4 412.4 363.1 406.1 379.9 391.4 411.3 393.5 432.3 395.6 453.2 399.8 449 393.5 455.3 387.3 461.6 383.1 457.4 385.2 465.8 387.3 474.2 389.3 474.2 387.3 478.4 385.2 482.6 412.4 497.2 435.4 499.3L458.5 501.4C458.5 501.4 458.5 463.7 462.7 455.3 466.9 446.9 475.2 430.2 475.2 423.9L475.2 407.3C475.2 396.2 472.4 385.3 466.9 375.7 461.4 366.1 454.3 356.9 452.2 356.9Z" class="b"/><path d="M427.1 365.2C427.1 365.2 349.5 371.5 341.2 392.5 332.8 413.4 328.6 455.3 337 455.3 345.3 455.3 355.8 459.5 357.9 455.3 360 451.1 368.4 409.2 370.5 409.2 372.6 409.2 435.4 402.9 435.4 402.9 435.4 402.9 462.7 369.4 427.1 365.2Z" class="b"/><path d="M474.2 325.5C474.2 325.5 480.8 313.9 489.2 324 497.5 334 511.1 315.5 509 311.6 506.9 307.6 499.6 311.7 487 307.6 474.4 303.5 450.1 295.1 446 322.5 441.9 349.9 451.6 347 451.6 347 451.6 347 456.1 322.7 460.1 329.7L464.1 336.7 467.6 337.5 474.2 325.5Z" class="c"/><circle cx="651.3" cy="75.3" r="30.7" class="c"/><path d="M701.5 253.3C701.5 253.3 703.1 281.9 699.9 281.9 696.7 281.9 719.8 295.4 719.8 295.4L734 287.5 734 278C734 278 715 275.6 722.9 254.9 730.9 234.3 701.5 253.3 701.5 253.3Z" class="d"/><path d="M574.8 411.5L572.5 435.3 580.4 437.7 586.7 431.4 589.1 411.5 574.8 411.5Z" class="d"/><path d="M689.1 425L693.1 440.1 704.2 447.2 716.1 440.9 702.6 418.7 689.1 425Z" class="d"/><circle cx="649" cy="87.3" r="23" class="d"/><path d="M695.2 328.7L689.6 326.4C689.6 326.4 680.1 320.8 679.3 309.7 678.5 298.6 687.2 284.3 687.2 284.3L699.9 280.3 714.8 292.5 715 312.1 695.2 328.7Z" class="d"/><path d="M689.6 285.9L686.4 284.3C686.4 284.3 670.6 283.5 669 302.6 667.4 321.6 661.8 353.4 661.8 353.4 661.8 353.4 649.1 375.6 649.9 399.4L643.6 420C643.6 420 634.8 450.2 645.2 450.2 655.5 450.2 654.7 417.6 654.7 417.6 654.7 417.6 673.7 371.6 675.3 363.7 676.9 355.7 690.4 318.4 686.4 308.1 682.5 297.8 689.6 285.9 689.6 285.9Z" class="d"/><path d="M701.5 335.9L701.5 344.6C701.5 344.6 707.1 351 704.7 354.9 702.3 358.9 699.9 366.8 699.9 366.8L711 384.3 748.3 387.5 755.7 337.8 701.5 335.9Z" class="d"/><path d="M736.4 280.3L742.8 277.2C742.8 277.2 756.3 267.6 767.4 266L801.5 243 823.7 189.9C823.7 189.9 822.9 161.3 829.3 164.5 835.6 167.6 834.8 192.2 834.8 192.2 834.8 192.2 822.9 241.4 812.6 254.9 802.3 268.4 765 290.7 765 290.7 765 290.7 754.7 302.6 755.5 308.1 756.3 313.7 736.4 280.3 736.4 280.3Z" class="d"/><path d="M707.1 366.8C707.1 366.8 698.3 361.3 692.8 370.8 687.2 380.3 676.9 382.7 670.6 411.3 664.2 439.9 649.1 485.1 645.2 488.3 641.2 491.4 624.5 524.8 634 571.6L649.9 571.6 663.4 504.1C663.4 504.1 707.1 450.2 710.2 428L724.5 511.3C724.5 511.3 725.3 543 737.2 558.1L749.9 588.3 766.6 580.3 747.5 504.1C747.5 504.1 757.1 427.2 750.7 405.7L749.8 377.6C749.8 377.6 723.7 378.7 707.1 366.8Z" class="c"/><path d="M640.4 586.7L630.9 586.7C629.3 586.7 616.6 597 622.1 602.6 627.7 608.1 636.4 618.4 636.4 618.4 636.4 618.4 667.4 622.4 668.2 616.8 669 611.3 654.7 599.4 654.7 599.4L650.7 586.7C650.7 586.7 642.8 578 640.4 586.7Z" class="c"/><path d="M766.6 594.6C766.6 594.6 753.1 593.8 750.7 593 748.3 592.2 743.6 613.7 750.7 615.3 757.9 616.8 787.2 619.2 787.2 619.2 787.2 619.2 810.2 618.4 808.6 612.1 807.1 605.7 776.1 593 776.1 593 776.1 593 772.1 585.1 766.6 594.6Z" class="c"/><path d="M703.9 279.5L699.9 277.2 695.2 281.1C695.2 281.1 709.4 290.7 706.3 299.4 703.1 308.1 689.6 326.4 689.6 326.4 689.6 326.4 701.5 339.9 701.5 344.6 701.5 344.6 732.5 333.5 755.5 344.6 755.5 344.6 755.5 328.7 758.6 325.6 761.8 322.4 763.4 311.3 755.5 301.8 749.9 294.8 744.8 287.3 740.4 279.5L732.5 274.8 728.4 276.1C728.4 276.1 736.4 285.1 728.5 285.9 720.6 286.7 707.9 284.3 703.9 279.5Z" class="b"/><path d="M733.7 178.3C731 181.4 727.3 183.3 723.3 183.8 716.4 184.8 721.8 195.7 721.8 195.7 721.8 195.7 719.9 191.7 723.8 188.3 727.8 184.8 733.7 182.8 733.7 178.3Z" class="c"/><circle cx="660.4" cy="42.6" r="8.5" class="c"/><path d="M730.3 206.4C723.7 202.9 712.4 200.2 706.3 200.4L707.9 194.6C713.2 198.2 724.5 201 731.9 200.5L730.3 206.4Z" class="b"/><path d="M716.7 206.9C716.7 206.9 706.3 220.3 685.5 223.2 664.7 226.2 681 258.9 681 258.9 681 258.9 675.1 247 687 236.6 698.9 226.2 716.7 220.3 716.7 206.9Z" class="c"/><path d="M717.5 206.1C717.5 206.1 723.4 226.9 732.4 229.9 741.3 232.9 736.8 264.1 722 267.1 722 267.1 734.6 250 727.2 236.6 719.7 223.2 715.3 212.8 717.5 206.1Z" class="c"/><rect x="742.7" y="15.9" width="54.8" height="6.3" class="c"/><rect x="770.5" y="442.9" width="54.8" height="6.3" class="c"/></svg>