<svg viewBox="0 0 600 600" xmlns="http://www.w3.org/2000/svg" fill-rule="evenodd" clip-rule="evenodd" stroke-miterlimit="10"><path d="M410.9 138.9c44.3 16.9 99.5 28.4 127.7 60.7 28.2 32.4 29.4 85.8 13.1 130.2-16.3 44.5-50.1 80-84 110.8-34 30.8-68 56.9-108.9 76.6-40.9 19.8-88.6 33.2-129.5 21.9-40.9-11.2-75-47.2-104.4-85.1-29.3-38-53.8-77.8-56.3-118.6-2.4-40.7 17.2-82.5 42.8-114.4 25.7-31.9 57.4-53.8 89.8-76.2 32.5-22.3 65.6-45.1 98.9-45.2 33.2-.1 66.6 22.3 110.8 39.3z" fill="#086972" fill-rule="nonzero"/><ellipse cx="286.68" cy="761.68" rx="227" ry="37.21" fill="#789463" transform="translate(42.557 65.413) scale(.55449)"/><path d="M607.77 572.54c-10.21 2.56-20.69-2.42-20.69-2.42s-8.94-10.35-16.48-11.75c-7.54-1.4-10.46 10.85-14.94 14-3.1 2.21-25.46.63-39-.55l-2.33-.21c-.23-.17-.46-.35-.71-.51 0 0-13-4-15.71-7.54-2.71-3.54-20.82-10.09-26.44-9.71-5.62.38-22.23 1.28-22.23 1.28s-6.51-7.41-9.45-6.64c-2.94.77-13.16-.06-13.16-.06s-2.81-7.22-5.62-17.57c-1.31-4.83-5.67-8.22-9.94-10.45 3.84-13-3-50.08-24.24-57.33-4.63-1.58-7-6.83-10.94-9.71-3.53-2.57-9.31-8.63-6.48-19.58 4-15.33 13.92-39.47 13.92-39.47l7.39-14.76a20.626 20.626 0 01-2.34 2.93c1-1.28 2-2.54 2.86-3.6a62.135 62.135 0 0023.66 6.52c8.34 3.37 16.67 6.34 19.91 6.23 7.41-.26 26.31 9.2 26.31 9.2s45.47 13 54.92 14.05c9.45 1.05 14.05-11.24 14.05-11.24s4.91-24.23-3.81-30.65c-8.72-6.42-13.79 23-13.79 23L453 374.56l-3.67-1.93a33.333 33.333 0 006.67-10.38c.92-2.29 1.76-4.91 3.95-6.05a5.572 5.572 0 011.88-.55 12.665 12.665 0 011.63 0c10.32.63 19.19 8.75 29.53 8.79h1.14a9.945 9.945 0 005.53-1.7 8.683 8.683 0 003.18-6.14c-.151.322-.318.635-.5.94.27-1.471.27-2.979 0-4.45-.64-3.51-2.47-6.66-4.11-9.83a4.997 4.997 0 01-.76-2.46c.094-.92.56-1.762 1.29-2.33.015.094.035.188.06.28a13.072 13.072 0 012.58-1.89 22.067 22.067 0 009.64-14.69c-.25.74-.55 1.47-.87 2.19a21.714 21.714 0 00-1.05-15.36 8.683 8.683 0 00-2.66-3.49c-3.73-2.62-8.74.17-13.29.47-4 .26-7.88-1.53-11.49-3.34-6.16-3.09-12.29-6.43-17.42-11-5.83-5.23-10.16-11.9-15.42-17.69-5.26-5.79-12.01-10.95-19.84-11.53-14.23-1.1-27.65 13-41.18 8.4-6.6-2.23-10.94-8.33-15.53-13.57s-10.9-10.27-17.78-9.14c-4.78.8-8.92 4.51-13.76 4.37-2.53-.08-4.88-1.21-7.28-2-5.81-1.95-13.77-1-15.84 4.78a8.523 8.523 0 00.75 7.17c-.306.429-.58.881-.82 1.35a4.62 4.62 0 00-.49 3 30.915 30.915 0 00-10.259 22.995c0 13.774 9.209 25.963 22.459 29.725.19.73.38 1.46.56 2.2 1.94 8.17 2.95 17.37.08 23.57-.18.38-.37.75-.58 1.11l-.25.11-.36-.37-2.18-2.28c-.12-2.38-1.46-8.76-10.78-20.6-12.27-15.59-14.57-41.39-14.57-41.39s-3.06-13.28 0-17.11 8.18-46 8.18-46l8.46-23.74s41.13-41.9 24-47c-11.63-3.47-25.5 14.41-33.2 26.23a46.77 46.77 0 00-7.16 19.24l-23.25 63.61s-2.3 7.67 0 20.95 7.41 36.79 7.41 36.79l13 32.95s4.79 14.23 4.37 20.41c-.57.37-2.57 4.33-4.3 7.93l-1.27 2-.09.81c-.85 1.81-1.44 3.11-1.44 3.11s-7.24 21.37-1.19 34.48c6.05 13.11 6.29 19.19 6.29 19.19l4.51 19.42 1.88 17 16.22 40.11 14.94 21.33s-1.4 15.71-4.47 17.88c-3.07 2.17-1.66 13.41-1.66 13.41l-1.92 29.5s-6 8.82-6.38 23.12c-.38 14.3-2.56 18.4-2.56 18.4s-1 12 1.79 17.5-4.47 11.24-4.47 11.24l6.23 21.39-2.43 27.08s1.13.31 3 .78l-.38 1.94-10.16 51.3s-5.49 14.06-5.74 17.37l-17.76 32.07s-14.82 14.69-7.79 16.09c7.03 1.4 27.47-11.24 27.47-11.24s16.86-18.14 23.5-19.79c6.64-1.65 14-6.4 11.88-13.29-2.12-6.89-7-17.37-2.3-28.49 3-7 9.38-26 13.76-39.26.24-.73.47-1.43.7-2.11a17.754 17.754 0 003.42-.65c10.73-3.32 16.35-1 16.35-1l19.16-77.53 4.21-38.9 26.83 22.38a32.255 32.255 0 0018.8 7.43c10.57.62 27.06 2.15 39 5.84l5-20.82s14.3.52 17.37-4.34c1.25-2 2.48-3.7 3.49-5l2.32-.36 63.29-9.79c11.75 0 27.85-7.93 27.85-7.93l9.84-1.91s14.68-2.94 16-5.37c1.32-2.43-13.79-10.5-24.02-7.96z" fill="url(#_Linear1)" fill-rule="nonzero" transform="translate(-5.307 37.378) scale(.55449)"/><path d="M172.452 181.695c1.109-3.127 5.445-3.654 8.6-2.595 1.297.433 2.578 1.048 3.948 1.11 2.628.077 4.874-1.942 7.469-2.368 3.731-.622 7.153 2.107 9.642 4.951 2.49 2.845 4.852 6.155 8.434 7.37 7.336 2.472 14.622-5.157 22.34-4.564 4.237.327 7.896 3.116 10.752 6.26 2.856 3.144 5.207 6.76 8.367 9.598 2.773 2.495 6.1 4.309 9.454 5.989 1.958.981 4.048 1.952 6.233 1.807 2.473-.16 5.19-1.663 7.208-.255a4.709 4.709 0 011.442 1.897c2.484 5.168.482 12.049-4.38 15.087-.849.527-1.88 1.11-1.93 2.124.015.474.157.935.41 1.336.887 1.72 1.885 3.433 2.218 5.335.333 1.901-.116 4.092-1.663 5.245-1.01.672-2.21 1-3.422.937-5.611-.028-10.424-4.436-16.024-4.774a4.045 4.045 0 00-2.102.322c-1.187.615-1.663 2.04-2.146 3.282-2.595 6.482-9.038 10.99-15.914 12.227-6.875 1.236-14.056-.505-20.21-3.81-.451-.215-.864-.5-1.226-.843a5.239 5.239 0 01-1.06-2.145c-1.885-5.961-4.435-12.2-9.659-15.643-3.387-2.218-7.984-3.465-9.52-7.208-.965-2.368-.36-5.057-.605-7.608a11.71 11.71 0 00-7.724-9.747c-.909-.305-1.907-.522-2.572-1.215a4.788 4.788 0 01-.998-2.356c-.827-3.754-1.376-7.719-2.529-11.384-.882-2.872-4.014-5.074-2.833-8.362z" fill="#663d5b" fill-rule="nonzero"/><path d="M271.644 238.298a5.667 5.667 0 01-3.42.914c-5.607 0-10.42-4.435-16.02-4.768a4.043 4.043 0 00-2.102.316c-1.192.615-1.663 2.04-2.145 3.282-2.596 6.488-9.044 10.996-15.92 12.233-6.876 1.236-14.056-.505-20.206-3.81-.45-.216-.862-.5-1.225-.843a5.277 5.277 0 01-1.059-2.146c-1.885-5.966-4.436-12.198-9.66-15.647-3.393-2.246-7.99-3.46-9.52-7.209-.97-2.373-.366-5.062-.604-7.607a11.7 11.7 0 00-7.73-9.748c-.91-.305-1.907-.527-2.573-1.214a4.752 4.752 0 01-.992-2.363c-.832-3.748-1.375-7.718-2.529-11.378-.776-2.45-3.221-4.436-3.1-7.053a3.71 3.71 0 00-.188.427c-1.186 3.288 1.952 5.49 2.845 8.317 1.153 3.66 1.696 7.63 2.528 11.379.108.863.452 1.68.993 2.362.665.687 1.663.91 2.573 1.214a11.7 11.7 0 017.73 9.754c.238 2.545-.367 5.234.604 7.607 1.53 3.765 6.127 4.99 9.52 7.209 5.212 3.454 7.763 9.68 9.66 15.647a5.277 5.277 0 001.058 2.146c.363.343.776.627 1.226.843 6.15 3.327 13.308 5.04 20.206 3.81 6.897-1.232 13.307-5.745 15.919-12.233.499-1.242.96-2.667 2.146-3.282.66-.291 1.385-.4 2.101-.316 5.6.338 10.414 4.746 16.02 4.768a5.671 5.671 0 003.42-.931 4.704 4.704 0 001.73-3.327 4.117 4.117 0 01-1.286 1.647zM272.61 224.241c-.85.555-1.886 1.11-1.936 2.124-.005.203.027.406.094.599.422-.399.89-.743 1.398-1.026a11.953 11.953 0 005.228-7.968 11.687 11.687 0 01-4.785 6.271z" fill-rule="nonzero"/><path d="M186.963 455.464c-2.568 6.032.072 11.71 1.247 15.459 1.176 3.748-2.839 6.304-6.443 7.208-3.604.904-12.753 10.74-12.753 10.74s-11.09 6.86-14.905 6.1c-3.815-.76 4.225-8.733 4.225-8.733l9.637-17.4c.139-1.797 3.117-9.426 3.117-9.426l5.511-27.836.732-3.698 19.54-1.181s-1.025 3.171-2.44 7.458c-2.378 7.208-5.86 17.544-7.468 21.309zM342.913 358.167c-.693 1.32-8.661 2.911-8.661 2.911l-5.34 1.037s-8.733 4.303-15.11 4.303l-34.345 5.318-4.608.715v-19.485s2.318.244 5.6.555c7.337.643 19.474 1.497 21.154.299 2.43-1.73 4.02-8.384 8.107-7.619 4.087.766 8.944 6.377 8.944 6.377s5.684 2.7 11.228 1.314c5.545-1.386 13.724 2.956 13.03 4.275z" fill="#cc818c" fill-rule="nonzero"/><path d="M280.671 370.227s-.493.555-1.214 1.503l-4.608.715v-19.479s2.318.244 5.6.555c5.512 4.352.222 16.706.222 16.706z" fill-opacity=".1" fill-rule="nonzero"/><path d="M214.343 365.725l18.448 15.393a17.512 17.512 0 0010.203 4.03c5.733.339 14.683 1.165 21.181 3.172l2.706-11.3s7.763.277 9.427-2.357a38.246 38.246 0 013.254-4.436c1.19-1.398 5.617-13.097-.76-17.117 0 0-7.069-2.151-8.527-4.092-1.459-1.94-11.295-5.473-14.345-5.268-3.05.206-12.06.694-12.06.694s-3.538-4.02-5.13-3.605c-1.59.416-7.14 0-7.14 0s-1.526-3.92-3.05-9.537c-1.525-5.617-10.602-7.624-10.602-7.624l-3.605 42.047z" fill="#565987" fill-rule="nonzero"/><path d="M214.343 365.725l18.448 15.393a17.512 17.512 0 0010.203 4.03c5.733.339 14.683 1.165 21.181 3.172l2.706-11.3s7.763.277 9.427-2.357a38.246 38.246 0 013.254-4.436c1.19-1.398 5.617-13.097-.76-17.117 0 0-7.069-2.151-8.527-4.092-1.459-1.94-11.295-5.473-14.345-5.268-3.05.206-12.06.694-12.06.694s-3.538-4.02-5.13-3.605c-1.59.416-7.14 0-7.14 0s-1.526-3.92-3.05-9.537c-1.525-5.617-10.602-7.624-10.602-7.624l-3.605 42.047z" fill-opacity=".1" fill-rule="nonzero"/><path d="M206.093 227.723l-2.041.383h-.128l-.299.055-3.493.65-1.076 1.275-.044.044-3.455 4.092-2.91 2.856-.029.033-2.462 2.395-4.164 4.142-.698 1.725-1.52 3.82-.393.97-4.16 4.437-2.655 5.683-6.21 3.604-6.682-3.465-3.05-4.436.693-6.355.14-1.27 2.034-3.265 1.846-2.972 3.605-5.13 6.93-4.713 1.243-.327 1.392-.366c.106-.152.204-.309.294-.471a5.69 5.69 0 00.316-.604c1.558-3.36 1.009-8.357-.045-12.787a64.327 64.327 0 00-3.2-9.704l18.299-2.633s-.177 3.548-.177 9.082c0 1.386 0 2.889.038 4.497.09 4.99 4.725 7.153 8.223 8.073.901.24 1.816.426 2.74.555a12.02 12.02 0 001.098.127z" fill="#cc818c" fill-rule="nonzero"/><path d="M177.259 230.34s.832-3.326-5.822-11.782-7.902-22.457-7.902-22.457-1.663-7.209 0-9.288c1.664-2.08 4.436-24.952 4.436-24.952l4.575-12.892s22.318-22.734 13.03-25.506c-6.31-1.886-13.862 7.824-18.015 14.233a25.367 25.367 0 00-3.881 10.441l-12.62 34.517s-1.248 4.16 0 11.368c1.247 7.208 4.02 19.961 4.02 19.961l7.07 17.9s3.72 11.144 1.79 12.503l4.309-6.371 9.01-7.674zM287.741 262.24s-2.495 6.654-7.624 6.1c-5.13-.555-29.804-7.624-29.804-7.624s-10.258-5.13-14.278-4.99c-4.02.138-22.457-8.457-22.457-8.457s-1.297 1.708-2.745 3.505c-1.574 1.968-3.327 4.047-3.77 4.12-.832.138-13.724 1.94-13.724 1.94l-8.733-4.02-.832-3.62-.393-1.664 1.935-2.157 2.545-2.834 4.774-5.445.028-.033 6.37-6.926.045-.044 4.081-1.663.788-.322h.127c.488-.083 2.362-.255 4.874 1.164 1.75.99 3.692 1.592 5.695 1.764a17.815 17.815 0 0110.718 4.59l20.516 10.797 32.3 11.644s2.772-15.941 7.485-12.476c4.713 3.466 2.08 16.651 2.08 16.651z" fill="#cc818c" fill-rule="nonzero"/><path d="M210.833 250.774c-1.574 1.968-3.327 4.047-3.77 4.12-.832.138-13.724 1.94-13.724 1.94l-8.733-4.02-.832-3.62-.393.97-4.16 4.436-2.655 5.683-6.21 3.604-6.682-3.465-3.05-4.436.693-6.355a169.88 169.88 0 012.174-4.535c.411-.954.928-1.857 1.542-2.695.554-.366 1.136-4.298 1.136-4.298 2.518-7.258 10.951-8.372 10.951-8.372l1.348 1.264.588.61c-.239-.039.044-.555-.261-.471-.488.138-.704.876-1.33 1.28-3.41 2.218-8.74 7.392-10.847 9.848a46.92 46.92 0 01-1.574 1.741c-3.045 3.222-2.484 7.491-2.484 7.491-.76 3.327 5.96 5.823 5.96 5.823 1.874-3.117 14.556-11.711 14.556-11.711l8.539-9.565c2.617-4.558 7.763-7.569 10.635-8.977 1.27-.621 2.101-.932 2.101-.932l3.194 1.364a4.259 4.259 0 00-2.556.111 8.72 8.72 0 00-1.857.82c-.874.508-1.695 1.1-2.451 1.77l-7.175 7.834c-5.484 5.983-1.353 15.66 6.759 15.798h.072c4.957 1.142 8.511-1.154 10.496-3.055zM196.871 426.713s-1.025 3.172-2.44 7.458c-5.422.405-14.377-1.691-17.832-2.578l.732-3.699 19.54-1.18z" fill-opacity=".1" fill-rule="nonzero"/><path d="M179.061 231.605l-1.774-1.819s-6.405.876-10.38 7.719c0 0-1.858 5.129-2.429 5.495-.571.366-3.854 7.535-3.854 7.535s-3.925 11.595-.648 18.714c3.277 7.12 3.42 10.397 3.42 10.397l2.452 10.535 1.014 9.238 8.806 21.764 8.106 11.55s-.76 8.522-2.423 9.703c-1.663 1.181-.904 7.275-.904 7.275l-1.037 16.014s-3.26 4.78-3.465 12.542c-.205 7.763-1.386 9.981-1.386 9.981s-.555 6.516.97 9.499c1.525 2.983-2.429 6.1-2.429 6.1l3.4 11.571-1.32 14.694s15.664 4.37 21.486 2.568c5.822-1.803 8.872-.555 8.872-.555l10.397-42.091 3.604-33.059s.21-23.427 3.327-30.569c2.672-6.1-.832-27.83-12.87-31.933-2.512-.854-3.787-3.704-5.933-5.268-1.918-1.391-5.051-4.68-3.515-10.624 2.151-8.317 7.557-21.414 7.557-21.414l4.004-7.974s-4.353 7.042-12.321 5.24h-.072c-8.112-.144-12.243-9.82-6.76-15.797l7.176-7.84s3.953-3.644 6.864-2.723l-3.188-1.364s-8.977 3.327-12.753 9.908l-8.54 9.565s-12.67 8.556-14.544 11.695c0 0-6.72-2.496-5.96-5.823 0 0-.555-4.275 2.484-7.496a31.074 31.074 0 001.574-1.736c2.734-3.194 10.292-11.666 12.992-11.217z" fill="#565987" fill-rule="nonzero"/><path d="M180.104 288.717s-2.013 14.628-.488 17.605l.488-17.605zM181.418 294.4l2.151 8.39s.76-5.129-2.151-8.39zM168.664 292.444s4.298 21.347 9.01 27.796M198.956 318.177s-7.347 6.932-10.191 6.427c0 0 11.3.488 14.832-5.473 0 .017-2.284-1.647-4.64-.954zM209.142 317.623s-9.426 6.859-11.295 7.486c0 0 10.186-2.912 11.295-7.486zM177.259 266.676s-4.713 6.033-7.07 5.34c0 0 5.756.205 7.07-5.34zM182.599 274.44s10.258-13.93 15.11-13.375c0 0-11.645 10.12-15.11 13.374zM196.805 269.371s-6.515 3.266-5.822 4.22c.693.954 5.822-4.22 5.822-4.22zM201.518 376.327s-21.764 12.686-23.771 13.308c0 0 3.743 2.844 7.275 1.458 3.532-1.386 16.496-14.766 16.496-14.766zM183.292 402.737s-8.733-.904-8.39 1.94c.344 2.845 8.39-1.94 8.39-1.94zM194.171 205.389s-.177 3.548-.177 9.082a16.801 16.801 0 01-14.922 3.25 64.327 64.327 0 00-3.2-9.704l18.299-2.628z" fill-opacity=".1" fill-rule="nonzero"/><circle cx="253.93" cy="243.48" r="30.25" fill="#cc818c" transform="translate(42.557 65.413) scale(.55449)"/><path d="M187.756 210.656c.47 6.86 1.913 14.705 7.868 18.154 4.303 2.49 9.725 1.836 14.489.416 4.763-1.42 9.426-3.538 14.383-3.776 3.81-.183 7.574.754 11.373.993 3.798.238 7.957-.355 10.668-3.028 3.881-3.804 3.172-10.718-.505-14.716-3.676-3.998-9.426-5.45-14.871-5.301-6.654.183-14.084 2.218-19.346-1.819-3.532-2.717-4.869-7.43-7.84-10.751-4.963-5.545-26.91-13.552-31.557-4.514-2.179 4.23 7.724 7.253 10.02 10.314 3.626 4.83 4.885 7.696 5.318 14.028z" fill-opacity=".1" fill-rule="nonzero"/><path d="M188.271 210.063c.477 6.865 1.913 14.71 7.868 18.154 4.303 2.49 9.726 1.835 14.49.421 4.762-1.414 9.426-3.537 14.388-3.776 3.804-.183 7.569.749 11.373.993 3.804.244 7.951-.355 10.663-3.028 3.881-3.81 3.171-10.718-.505-14.716-3.676-3.998-9.426-5.45-14.866-5.3-6.654.177-14.09 2.217-19.351-1.825-3.533-2.717-4.869-7.425-7.841-10.752-4.963-5.545-26.91-13.546-31.556-4.508-2.18 4.226 7.724 7.248 10.025 10.314 3.621 4.824 4.88 7.685 5.312 14.023z" fill="#663d5b" fill-rule="nonzero"/><path d="M168.099 257.311a15.5 15.5 0 016.593-10.946M230.99 344.166a5.46 5.46 0 01-.395 1.58 50.343 50.343 0 01-2.617 6.36c1.48-.127 2.7-1.291 3.327-2.633.547-1.38.85-2.846.893-4.33.054-.464.068-.932.039-1.398-.04-.433-.316-2.085-1.032-1.791-.576.244-.205 1.774-.216 2.212zM248.05 221.092c-2.716 2.672-6.864 3.271-10.668 3.027-3.803-.244-7.585-1.175-11.372-.987-4.99.239-9.615 2.357-14.384 3.776-4.768 1.42-10.186 2.074-14.494-.416-5.95-3.448-7.391-11.295-7.863-18.154-.432-6.332-1.696-9.199-5.317-14.028-2.19-2.922-11.284-5.806-10.242-9.731a6.18 6.18 0 00-.776 1.153c-2.18 4.225 7.724 7.247 10.025 10.313 3.621 4.824 4.88 7.697 5.312 14.023.477 6.865 1.913 14.711 7.868 18.154 4.303 2.49 9.726 1.836 14.49.422 4.762-1.414 9.426-3.538 14.388-3.776 3.804-.183 7.569.748 11.373.992 3.804.244 7.951-.355 10.663-3.027a8.275 8.275 0 001.802-2.673c-.244.33-.513.642-.804.932z" fill-opacity=".1" fill-rule="nonzero"/><path d="M166.896 271.511l-2.035 4.436 6.47-1.292-4.435-3.144z" fill="#cc818c" fill-rule="nonzero"/><path d="M166.896 271.511l-1.675 4.436h-.36l2.035-4.436z" fill-opacity=".1" fill-rule="nonzero"/><ellipse cx="513.02" cy="729.17" rx="41" ry="5.63" fill="#789463" fill-opacity=".1" transform="translate(42.557 65.413) scale(.55449)"/><ellipse cx="670.07" cy="745.09" rx="41" ry="5.63" fill="#789463" fill-opacity=".1" transform="translate(42.557 65.413) scale(.55449)"/><ellipse cx="855.06" cy="723.54" rx="41" ry="5.63" fill="#789463" fill-opacity=".1" transform="translate(42.557 65.413) scale(.55449)"/><ellipse cx="607.21" cy="790.43" rx="29.14" ry="4" fill="#789463" fill-opacity=".1" transform="translate(42.557 65.413) scale(.55449)"/><ellipse cx="770.21" cy="786.43" rx="29.14" ry="4" fill="#789463" fill-opacity=".1" transform="translate(42.557 65.413) scale(.55449)"/><path d="M414.597 477.86s-31.883-104.522 4.99-146.386c27.581-31.318 58.893-27.57 72.916-23.699a25.914 25.914 0 0116.724 13.901c4.901 10.58 4.02 27.725-30.586 47.78-57.944 33.547-61.548 79.57-61.548 79.57l-2.496 28.833z" fill="#789463" fill-rule="nonzero"/><path d="M487.513 322.602s-93.986 29.388-72.916 155.257M432.618 333.138s12.937 8.722 8.828 21.824M478.086 340.9s-7.912-8.05-17.544-3.61M440.936 381.378s-13.896-7.053-17.489 1.78M406.557 396.072s10.43-.832 10.619 4.159" fill="none" stroke="#565987" stroke-width=".55449"/><path d="M413.333 478.691s37.34-75.965 47.598-74.302c4.874.788 7.12 5.584 8.134 10.397a30.557 30.557 0 01-2.063 18.498c-5.295 12.149-19.529 35.232-53.669 45.407z" fill="#789463" fill-rule="nonzero"/><path d="M460.626 418.806s-39.192 56.835-46.766 59.33M464.23 427.678h-9.15M453.273 448.471l-14.339.616M444.545 431.837l1.559 7.469M429.297 454.57l.277 6.788" fill="none" stroke="#565987" stroke-width=".55449"/><path d="M414.442 478.691s-37.34-75.965-47.597-74.302c-4.874.788-7.12 5.584-8.135 10.397a30.556 30.556 0 002.008 18.498c5.295 12.149 19.529 35.232 53.724 45.407z" fill="#789463" fill-rule="nonzero"/><path d="M367.094 418.806s39.192 56.835 46.766 59.33M363.485 427.678h9.149M374.447 448.471l14.339.616M383.169 431.837l-1.553 7.469M398.417 454.57l-.277 6.788" fill="none" stroke="#565987" stroke-width=".55449"/><path d="M478.53 496.43a6.451 6.451 0 002.13-3.206c.271-1.275-.272-2.8-1.487-3.266-1.364-.52-2.822.422-3.925 1.376-1.104.953-2.374 2.046-3.82 1.84a5.812 5.812 0 001.79-5.44 2.223 2.223 0 00-.499-1.108c-.754-.81-2.13-.46-3.039.177-2.883 2.03-3.687 5.944-3.698 9.471-.294-1.275-.05-2.6-.055-3.881-.006-1.281-.366-2.773-1.464-3.45a4.435 4.435 0 00-2.218-.554c-1.298-.044-2.74.083-3.627 1.032-1.109 1.175-.815 3.155.145 4.435.959 1.281 2.412 2.108 3.748 3.006a8.219 8.219 0 012.684 2.556c.082.144.148.297.2.455h8.122a22.599 22.599 0 005.013-3.444zM336.259 465.838a6.454 6.454 0 002.124-3.21c.277-1.276-.266-2.773-1.486-3.266-1.364-.522-2.817.421-3.926 1.38-1.11.96-2.373 2.04-3.815 1.841a5.829 5.829 0 001.78-5.456 2.263 2.263 0 00-.5-1.109c-.759-.81-2.128-.466-3.038.172-2.883 2.03-3.687 5.944-3.704 9.47-.288-1.27-.044-2.594-.05-3.88-.005-1.287-.366-2.773-1.469-3.455a4.39 4.39 0 00-2.218-.521c-1.292-.05-2.74.077-3.62 1.025-1.11 1.181-.816 3.155.138 4.436.954 1.281 2.412 2.107 3.754 3.006a8.314 8.314 0 012.678 2.556c.083.146.15.3.2.46h8.128a22.81 22.81 0 005.024-3.449zM383.662 496.43a6.451 6.451 0 002.13-3.206c.271-1.275-.272-2.8-1.486-3.266-1.364-.52-2.823.422-3.926 1.376-1.104.953-2.373 2.046-3.82 1.84a5.812 5.812 0 001.796-5.44 2.223 2.223 0 00-.5-1.108c-.753-.81-2.128-.46-3.038.177-2.883 2.03-3.687 5.944-3.698 9.471-.294-1.275-.05-2.6-.056-3.881-.005-1.281-.366-2.773-1.463-3.45a4.435 4.435 0 00-2.218-.554c-1.298-.044-2.74.083-3.627 1.032-1.109 1.175-.815 3.155.144 4.435.96 1.281 2.412 2.108 3.749 3.006a8.219 8.219 0 012.683 2.556c.083.144.15.297.2.455h8.123a22.602 22.602 0 005.007-3.444zM518.132 434.587s3.05 3.981-1.403 9.98c-4.453 6-8.123 11.09-6.654 14.839 0 0 6.72-11.167 12.199-11.323 5.478-.155 1.896-6.781-4.142-13.496z" fill="#789463" fill-rule="nonzero"/><path d="M518.132 434.587c.266.383.476.803.62 1.248 5.34 6.265 8.18 12.115 3.05 12.265-4.774.133-10.502 8.678-11.877 10.835.046.165.099.328.161.488.062.16 6.72-11.168 12.199-11.323 5.478-.155 1.885-6.798-4.153-13.513z" fill-opacity=".1" fill-rule="nonzero"/><path d="M523.815 439.66c0 1.403-.155 2.54-.349 2.54-.194 0-.344-1.153-.344-2.54 0-1.386.194-.737.388-.737s.305-.649.305.738z" fill="#ffd037" fill-rule="nonzero"/><path d="M525.762 441.335c-1.231.671-2.307 1.076-2.396.91-.089-.167.826-.854 2.057-1.525 1.231-.671.749-.183.838 0 .088.183.743-.056-.5.615z" fill="#ffd037" fill-rule="nonzero"/><path d="M502.052 434.587s-3.05 3.981 1.402 9.98c4.453 6 8.124 11.09 6.654 14.839 0 0-6.715-11.167-12.198-11.323-5.484-.155-1.858-6.781 4.142-13.496z" fill="#789463" fill-rule="nonzero"/><path d="M502.052 434.587a4.895 4.895 0 00-.627 1.248c-5.334 6.265-8.173 12.115-3.05 12.265 4.78.133 10.536 8.678 11.883 10.835-.044.166-.1.329-.166.488-.066.158-6.715-11.168-12.2-11.323-5.483-.155-1.84-6.798 4.16-13.513z" fill-opacity=".1" fill-rule="nonzero"/><path d="M496.401 439.66c0 1.403.161 2.54.355 2.54.194 0 .35-1.137.35-2.54 0-1.402-.195-.737-.389-.737s-.316-.649-.316.738z" fill="#ffd037" fill-rule="nonzero"/><path d="M494.46 441.335c1.232.671 2.302 1.076 2.396.91.094-.167-.826-.854-2.057-1.525-1.231-.671-.749-.183-.843 0-.094.183-.726-.056.505.615z" fill="#ffd037" fill-rule="nonzero"/><path d="M497.372 458.901s8.517-.26 11.09-2.09c2.572-1.83 13.102-4.009 13.74-1.076.637 2.934 12.797 14.578 3.182 14.655-9.614.078-22.34-1.497-24.902-3.06-2.561-1.564-3.11-8.429-3.11-8.429z" fill="#a8a8a8" fill-rule="nonzero"/><path d="M525.55 469.37c-9.614.078-22.345-1.497-24.907-3.06-1.946-1.187-2.728-5.451-2.983-7.42h-.288s.554 6.87 3.105 8.429c2.55 1.558 15.287 3.138 24.902 3.06 2.772 0 3.732-1.009 3.682-2.473-.394.893-1.447 1.448-3.51 1.464z" fill-opacity=".2" fill-rule="nonzero"/><defs><linearGradient id="_Linear1" x1="0" y1="0" x2="1" y2="0" gradientUnits="userSpaceOnUse" gradientTransform="matrix(0 -685.18 685.18 0 454.54 832.71)"><stop offset="0" stop-color="gray" stop-opacity=".25"/><stop offset=".54" stop-color="gray" stop-opacity=".12"/><stop offset="1" stop-color="gray" stop-opacity=".1"/></linearGradient></defs></svg>