<svg viewBox="0 0 600 600" xmlns="http://www.w3.org/2000/svg" fill-rule="evenodd" clip-rule="evenodd" stroke-miterlimit="10"><path d="M410.9 138.9c44.3 16.9 99.5 28.4 127.7 60.7 28.2 32.4 29.4 85.8 13.1 130.2-16.3 44.5-50.1 80-84 110.8-34 30.8-68 56.9-108.9 76.6-40.9 19.8-88.6 33.2-129.5 21.9-40.9-11.2-75-47.2-104.4-85.1-29.3-38-53.8-77.8-56.3-118.6-2.4-40.7 17.2-82.5 42.8-114.4 25.7-31.9 57.4-53.8 89.8-76.2 32.5-22.3 65.6-45.1 98.9-45.2 33.2-.1 66.6 22.3 110.8 39.3z" fill="#086972" fill-rule="nonzero"/><path d="M410.919 291.87H207.702l11.612-35.737h6.224l1.245 9.27h160.911l.83-9.27h7.463l14.932 35.737z" fill="#789463" fill-rule="nonzero"/><path d="M410.919 291.87H207.702l11.612-35.737h6.224l1.245 9.27h160.911l.83-9.27h7.463l14.932 35.737z" fill-opacity=".2" fill-rule="nonzero"/><path d="M425.02 299.812H189.457l-5.809-14.557H430l-4.98 14.557zM417.558 309.081H195.26l-5.804-9.269h235.565l-7.463 9.269z" fill="#789463" fill-rule="nonzero"/><path fill="#789463" d="M195.26 306.434h222.292v10.59H195.26zM181.988 334.228h252.985v39.71H181.988z"/><path fill-opacity=".2" d="M181.988 334.228h252.985v39.71H181.988z"/><path d="M594.231 467.912l-575.645-3.968 16.592-93.98h546.611l12.442 97.948z" fill="#789463" fill-rule="nonzero"/><path d="M181.637 438.797h7.352c4.809 0 8.766 3.957 8.766 8.766v17.708h-24.884v-17.708c0-4.81 3.957-8.766 8.766-8.766zM235.549 438.797h7.352c4.809 0 8.766 3.957 8.766 8.766v17.708h-24.884v-17.708c0-4.81 3.957-8.766 8.766-8.766zM302.733 438.797h7.352c4.809 0 8.766 3.957 8.766 8.766v17.708h-24.884v-17.708c0-4.81 3.957-8.766 8.766-8.766zM372.406 438.797h7.346c4.81 0 8.766 3.957 8.766 8.766v17.708H363.64v-17.708c0-4.81 3.957-8.766 8.766-8.766zM427.984 438.797h7.352c4.809 0 8.766 3.957 8.766 8.766v17.708h-24.884v-17.708c0-4.81 3.957-8.766 8.766-8.766z" fill-rule="nonzero"/><path fill-opacity=".2" d="M293.137 373.939h26.544v52.948h-26.544z"/><path fill="#789463" d="M181.988 334.228h4.149v39.71h-4.15zM206.042 334.228h4.15v39.71h-4.15zM232.586 334.228h4.15v39.71h-4.15zM258.3 334.228h4.15v39.71h-4.15zM286.504 334.228h4.149v39.71h-4.15zM324.654 334.228h4.15v39.71h-4.15zM350.368 334.228h4.15v39.71h-4.15zM379.402 334.228h4.149v39.71h-4.15zM404.286 334.228h4.15v39.71h-4.15zM430.83 334.228h4.15v39.71h-4.15z"/><path d="M434.973 336.876H181.988l-14.926-13.237h282.013l-14.102 13.237z" fill="#789463" fill-rule="nonzero"/><path fill="#789463" d="M181.988 336.876h9.952v5.294h-9.952zM203.558 336.876h9.953v5.294h-9.953zM229.266 336.876h9.953v5.294h-9.953zM255.81 336.876h9.953v5.294h-9.953zM284.014 336.876h9.953v5.294h-9.953zM321.34 336.876h9.953v5.294h-9.953zM347.884 336.876h9.953v5.294h-9.953zM376.912 336.876h9.953v5.294h-9.953zM401.796 336.876h9.953v5.294h-9.953zM425.02 336.876h9.953v5.294h-9.952z"/><path d="M450.735 323.639H166.232l-3.32-9.263h290.312l-2.49 9.263z" fill="#789463" fill-rule="nonzero"/><path d="M450.735 323.639H166.232l-3.32-9.263h290.312l-2.49 9.263z" fill-opacity=".2" fill-rule="nonzero"/><ellipse cx="492.5" cy="335.83" rx="11.35" ry="18.12" fill="#789463" transform="translate(18.586 114.139) scale(.58441)"/><ellipse cx="492.5" cy="335.83" rx="11.35" ry="18.12" fill-opacity=".2" transform="translate(18.586 114.139) scale(.58441)"/><ellipse cx="492.5" cy="335.83" rx="7.1" ry="11.32" fill="#789463" transform="translate(18.586 114.139) scale(.58441)"/><path d="M766.17 700.64l-48.68-37.36s-3.93-15.57-5.5-26.47c-1.57-10.9-3.93-57.6-3.93-57.6a67.865 67.865 0 002.21-12.36c.48-.1 1-.22 1.45-.35a24.295 24.295 0 0016.39-14.13c5-12.44-1.46-27.14-9.64-37s-18.47-17.78-23.85-30c-6.64-15.06-4.37-33.26-7.76-49.74a14.997 14.997 0 00-2.51-6.43c-2.1-2.61-5.39-3.18-8.33-4.22-9.28-3.29-16.24-12.31-21.67-21.72-8.79-15.25-17.89-38.44-36-39.76-6.73-.49-13.76 1.78-20.56 1.76-10.55 0-21 .13-31.46 1.58-3.74.51-7.62 1.21-10.74 3.68-10.71 8.47-5.86 30.86-16.18 40-3.07 2.71-7 3.68-10.47 5.54-13.08 7-18.89 25.67-18.12 42.47.36 7.87 2 16.07 6.65 21.82 3.68 4.6 8.93 7.24 12.36 12.09 5.54 7.83 4.79 18.21 4.19 28.77-7.4 3.1-13.34 6.66-15.21 10.49-6.28 12.84-5.5 56.82-5.5 56.82s2.36 72-15.7 81l-67.53 46.7s-47.9-41.64-59.68-17.12c-8.06 16.77 21.35 26.26 40.74 30.58-12.23 8.68-19 24.72-13.26 35.59 9 17.12 34.16 28.8 34.16 28.8s95.95 4.63 140.3-5.31h.73c18.83 3.41 45.85 7 67.52 4.84.41 1 .7 1.64.7 1.64s139 11.68 164.11-35.81c12.89-24.35-.56-35.6-16.72-40.78 18.09-1.44 38.69-6.5 41.06-21.88 4.35-28.04-63.57 3.87-63.57 3.87zm-14 14.89c-25.43 9.27-46.08 9.79-57.07 9.09-5.41-11.77-27.92-62.79-28.51-96.93.14-7.62 1.5-14.28 4.54-19.28 6.55-10.77 8.48-19.21 8.26-25.63v-1.4a26.101 26.101 0 00-.57-5.84 15.324 15.324 0 01.93 8.34c-2.36 12.07 3.93 90.29 3.93 90.29s5.1 17.51 15.7 22.57l52.79 18.79zM503.12 710l24.34-15.57s11.39-5.43 12.54-18.7l8-63.23a65.048 65.048 0 002.16 8c1.42 4.15 2 10.23 2.11 17.47C552 673.22 540 731.78 540 731.78h.15l-.09.42-.85.05c-19.75-.6-65.77-2.32-91.54-5.89L503.12 710zm-42.65 36.86v.14h-6l6-.14z" fill="url(#_Linear1)" fill-rule="nonzero" transform="translate(-44.238 53.647) scale(.58441)"/><path d="M337.102 293.033c3.068 5.365 7.013 10.52 12.243 12.378 1.66.585 3.507.918 4.676 2.402a8.614 8.614 0 011.414 3.664c1.911 9.392.631 19.765 4.383 28.344 3.04 6.949 8.854 11.478 13.477 17.083 4.622 5.604 8.252 13.985 5.446 21.068a13.762 13.762 0 01-9.216 8.053c-3.869 1.046-7.907.584-11.834-.088-5.178-.917-10.45-2.337-14.762-5.844-7.463-6.06-10.62-16.948-14.523-26.626-1.835-4.535-4.272-9.286-8.304-10.91-4.623-1.859-9.813 1.244-12.81 5.797-2.999 4.552-4.331 10.274-5.78 15.779-1.637 6.212-3.712 12.67-8.013 16.732a13.508 13.508 0 01-14.4 2.88c-4.792-1.998-8.585-7.047-9.683-12.909-1.701-9.035 2.372-19.87-2.624-27.011-1.94-2.765-4.904-4.272-7.013-6.89-2.601-3.28-3.554-7.949-3.758-12.431-.438-9.573 2.846-20.238 10.233-24.2 1.975-1.058 4.178-1.613 5.914-3.156 5.844-5.19 3.092-17.948 9.14-22.792 1.754-1.409 3.951-1.8 6.067-2.098 5.925-.824 11.81-.918 17.771-.9 3.846 0 7.814-1.28 11.619-1 10.233.772 15.358 13.985 20.337 22.675z" fill="#965d7b" fill-rule="nonzero"/><path d="M227.39 486.502l2.239 26.515 156.552-.93-2.98-28.945-52.93-6.16-92.817 5.599-10.063 3.921z" fill="#575988" fill-rule="nonzero"/><path d="M227.39 486.502l2.239 26.515 156.552-.93-2.98-28.945-52.93-6.16-92.817 5.599-10.063 3.921z" fill-opacity=".05" fill-rule="nonzero"/><path d="M330.405 505.04l-52.118 4.88s35.707 9.093 56.553 4.675l-4.435-9.555z" fill="#f7c4a7" fill-rule="nonzero"/><path d="M330.405 505.04l-52.118 4.88s35.707 9.093 56.553 4.675l-4.435-9.555z" fill-opacity=".1" fill-rule="nonzero"/><path d="M290.706 318.303s10.203 26.837-4.88 38.811c-15.084 11.975-2.66 45.467-2.66 45.467l58.109-2.659s5.768-37.7 2.659-45.689c0 0-13.751 3.991-16.855-4.436-3.103-8.427-5.324-31.494-5.324-31.494h-31.05z" fill="#f7c4a7" fill-rule="nonzero"/><path d="M277.399 480.641s-49.015-1.11-63.426-4.675c-14.412-3.565-26.837 13.529-21.735 23.289 5.102 9.76 19.286 16.41 19.286 16.41s72.964 3.547 88.713-6.429c0 0 5.99-17.076 0-20.402h-76.06l56.103-1.11-2.881-7.083zM355.248 475.545s16.41 3.547 39.033-5.324c0 0 42.358-1.332 28.168 25.714-14.19 27.047-92.705 20.402-92.705 20.402s-4.675-9.982 0-12.64c4.676-2.66 45.245-19.736 57.857-18.854l-35.065 6.873 2.712-16.171z" fill="#575988" fill-rule="nonzero"/><path d="M323.766 331.213c-.848-6.317-1.344-11.466-1.344-11.466h-31.05a60.583 60.583 0 012.969 12.553c8.919 6.245 20.99 5.8 29.425-1.087z" fill-opacity=".1" fill-rule="nonzero"/><circle cx="494.66" cy="336.63" r="41.74" fill="#f7c4a7" transform="translate(18.586 114.139) scale(.58441)"/><path d="M293.37 353.345s-29.273 5.546-32.82 12.857c-3.547 7.31-3.103 32.382-3.103 32.382s1.332 41.031-8.872 46.127l-38.144 26.615s-27.058-23.733-33.709-9.76c-6.65 13.973 31.938 19.075 31.938 19.075l43.025-12.857 13.75-8.871s6.43-3.104 7.095-10.648l5.769-45.69 23.066-6.65h37.245l4.99-14.248s9.205 7.375 7.873 14.248c-1.333 6.873 2.215 51.428 2.215 51.428s2.88 9.982 8.871 12.857l34.603 12.46s36.596 3.547 39.033-12.419c2.437-15.966-35.93 2.215-35.93 2.215l-27.502-21.29s-2.215-8.872-3.103-15.084c-.889-6.212-2.215-32.82-2.215-32.82s8.427-27.947-15.966-32.82l-31.494-9.76-26.614 2.653z" fill="#f7c4a7" fill-rule="nonzero"/><path d="M273.74 358.996l4.547 30.05s-4.675 13.974 0 27.725c4.675 13.751-5.774 64.98-5.774 64.98s54.777 17.533 88.246-2.659c0 0-24.615-51.895-14.195-69.194 10.42-17.298.17-24.066.17-24.066l1.636-31.798-7.54-2.215-4.435 31.436s-30.606 21.29-53.228 2.659l-4.88-34.153-4.547 7.235z" fill-opacity=".1" fill-rule="nonzero"/><path d="M305.38 394.715c-4.883-7.805-15.018-10.655-23.253-6.54 7.427 5.558 15.615 7.043 23.253 6.54zM317.95 391.384c4.884-7.805 15.02-10.656 23.255-6.54-7.422 5.558-15.616 7.048-23.254 6.54z" fill="#fff" fill-opacity=".07" fill-rule="nonzero"/><path d="M273.74 358.996l4.547 28.496s-4.675 13.973 0 27.724-5.774 64.98-5.774 64.98 54.777 17.533 88.246-2.658c0 0-24.615-51.896-14.195-69.194 10.42-17.299.17-24.066.17-24.066l1.6-31.822-7.538-2.215-4.436 31.494s-30.606 21.29-53.228 2.66l-4.88-34.154-4.512 8.755z" fill-opacity=".1" fill-rule="nonzero"/><path d="M273.518 358.774l4.769 29.162s-4.675 13.973 0 27.724c4.675 13.752-5.774 64.981-5.774 64.981s54.777 17.532 88.246-2.659c0 0-24.615-51.896-14.195-69.194 10.42-17.299.17-24.066.17-24.066l1.6-31.822-7.538-2.214-4.436 31.493s-30.606 21.29-53.228 2.66l-4.88-34.153-4.734 8.088z" fill="#fc6681" fill-rule="nonzero"/><path d="M296.03 491.511l11.548-1.554s13.307-17.077 22.844-3.992c0 0 3.992 8.427 8.872 9.982a65.595 65.595 0 0010.203 2.215l-19.735 5.546s-8.65 5.102-17.743 3.77a34.482 34.482 0 00-15.966 1.332l-.023-17.299z" fill="#f7c4a7" fill-rule="nonzero"/><path d="M283.278 419.097s20.846 3.103 24.393-2.437M322.772 415.55s3.992 3.99 19.958 1.11M282.167 353.672s15.3 2.215 18.187.888M315.882 353.672s15.3 2.215 18.187.888M297.695 489.846s4.214 19.87 0 20.57c-4.213.702-10.204-3.272-10.204-3.716 0-.444 2.66-13.085 2.66-13.085l7.544-3.77z" fill-opacity=".1" fill-rule="nonzero"/><path d="M297.251 489.846s4.214 19.87 0 20.57c-4.214.702-10.204-3.272-10.204-3.716 0-.444 2.66-13.085 2.66-13.085l7.544-3.77z" fill="#575988" fill-rule="nonzero"/><path d="M276.662 350.767c-1.858 4.32-2.519 9.415-.543 13.681 1.508 3.256 4.453 5.891 5.02 9.433.713 4.441-2.577 8.959-1.35 13.284.467 1.66 1.56 3.062 2.67 4.377 3.379 3.991 7.867 7.854 13.08 7.544.824-8.053-6.137-15.866-3.857-23.633.818-2.782 2.735-5.096 3.892-7.75 1.923-4.4 1.648-9.426.952-14.177-1.01-6.89-3.57-15.347-10.402-18.573-3.144-1.484-7.597-1.59-8.72 2.437-.584 2.15.819 4.173 1.012 6.277.245 2.67-.72 4.698-1.754 7.1z" fill-opacity=".1" fill-rule="nonzero"/><path d="M276.662 350.101c-1.858 4.319-2.519 9.415-.543 13.681 1.508 3.255 4.453 5.891 5.02 9.433.713 4.441-2.577 8.959-1.35 13.283.467 1.66 1.56 3.063 2.67 4.378 3.379 3.991 7.867 7.854 13.08 7.544.824-8.053-6.137-15.866-3.857-23.633.818-2.782 2.735-5.096 3.892-7.75 1.923-4.4 1.648-9.426.952-14.177-1.01-6.89-3.57-15.347-10.402-18.573-3.144-1.484-7.597-1.59-8.72 2.437-.584 2.15.819 4.173 1.012 6.277.245 2.676-.72 4.704-1.754 7.1z" fill="#965d7b" fill-rule="nonzero"/><path d="M278.398 298.895s32.382-4.436 33.265 2.215c.882 6.65 29.495 17.532 29.495 17.532l-7.095-17.532-13.085-21.734s-23.96-1.753-25.06 0c-1.098 1.753-13.75 7.539-13.75 7.539l-3.77 11.98z" fill-opacity=".1" fill-rule="nonzero"/><path d="M278.398 298.45s32.382-4.435 33.265 2.216c.882 6.65 29.495 17.532 29.495 17.532l-7.095-17.532-13.085-21.729s-23.96-1.753-25.06 0c-1.098 1.754-13.75 7.54-13.75 7.54l-3.77 11.974z" fill="#965d7b" fill-rule="nonzero"/><path d="M334.747 345.853a15.784 15.784 0 013.25 6.504c.537 2.285.554 4.675 1.069 6.966 1.093 4.88 4.318 8.983 7.69 12.676a13.836 13.836 0 003.928 3.308c1.543.76 3.506.917 4.938 0-1.356-1.11-2.092-2.811-2.577-4.5a23.118 23.118 0 01-.9-7.253c.146-4.09 1.344-8.41-.357-12.138-.981-2.15-2.81-3.787-4.675-5.26a24.868 24.868 0 00-4.173-2.746c-2.752-1.374-5.914-1.976-8.953-2.274-3.962-.409-.497 3.209.76 4.717z" fill-opacity=".1" fill-rule="nonzero"/><path d="M334.747 345.18a15.783 15.783 0 013.25 6.517c.537 2.285.554 4.675 1.069 6.966 1.093 4.88 4.318 8.982 7.69 12.676a13.836 13.836 0 003.928 3.307c1.543.76 3.506.918 4.938 0-1.356-1.11-2.092-2.81-2.577-4.5a23.118 23.118 0 01-.9-7.252c.146-4.091 1.344-8.41-.357-12.138-.981-2.15-2.81-3.787-4.675-5.26a24.868 24.868 0 00-4.173-2.747c-2.752-1.373-5.914-1.975-8.953-2.273-3.962-.415-.497 3.202.76 4.704z" fill="#965d7b" fill-rule="nonzero"/><path d="M320.248 210.807h-4.021a2.83 2.83 0 002.945-2.814 2.83 2.83 0 00-2.945-2.814h-32.57a2.83 2.83 0 00-2.688 2.814 2.83 2.83 0 002.689 2.814h4.02a2.83 2.83 0 00-2.945 2.814 2.83 2.83 0 002.945 2.814h-5.627a2.83 2.83 0 00-2.945 2.814 2.83 2.83 0 002.945 2.814h32.569l.128.002a2.83 2.83 0 002.817-2.816 2.83 2.83 0 00-2.945-2.814h5.628c.042.001.085.003.128.003a2.83 2.83 0 002.816-2.817 2.83 2.83 0 00-2.944-2.814zM478.039 210.807h-4.021a2.83 2.83 0 002.945-2.814 2.83 2.83 0 00-2.945-2.814h-32.57a2.83 2.83 0 00-2.688 2.814 2.83 2.83 0 002.689 2.814h4.02a2.83 2.83 0 00-2.945 2.814 2.83 2.83 0 002.945 2.814h-5.627a2.83 2.83 0 00-2.945 2.814 2.83 2.83 0 002.945 2.814h32.569l.128.002a2.83 2.83 0 002.817-2.816 2.83 2.83 0 00-2.945-2.814h5.628c.042.001.085.003.128.003a2.83 2.83 0 002.816-2.817 2.83 2.83 0 00-2.944-2.814zM142.002 282.69h-4.02l.128.002a2.83 2.83 0 002.816-2.817 2.83 2.83 0 00-2.944-2.814h-32.57a2.83 2.83 0 00-2.689 2.814 2.83 2.83 0 002.69 2.814h4.02a2.83 2.83 0 00-2.689 2.814 2.83 2.83 0 002.69 2.814h-5.629a2.83 2.83 0 00-2.945 2.814 2.83 2.83 0 002.945 2.814h32.57a2.83 2.83 0 002.945-2.814 2.83 2.83 0 00-2.946-2.814h5.628a2.83 2.83 0 002.69-2.814 2.83 2.83 0 00-2.69-2.814z" fill="#252223" fill-opacity=".1" fill-rule="nonzero"/><path d="M479.529 508.687s-14.418-48.95 2.706-84.98c7.188-15.118 9.572-32.095 6.253-48.505a130.016 130.016 0 00-6.867-22.792" fill="none" stroke="#535461" stroke-width="1.16882"/><path d="M492.251 329.67c0 6.002-10.864 23.377-10.864 23.377s-10.864-17.398-10.864-23.377a12.065 12.065 0 01-.003-.252c0-5.96 4.905-10.864 10.864-10.864 5.96 0 10.865 4.904 10.865 10.864l-.003.252h.005zM510.228 362.9c-3.261 5.037-21.834 13.733-21.834 13.733s.34-20.507 3.6-25.544a10.872 10.872 0 018.969-4.733c5.96 0 10.864 4.905 10.864 10.864 0 2.003-.554 3.966-1.599 5.674v.006zM509.439 419.687c-5.359 2.7-25.778.836-25.778.836s10.642-17.533 16-20.233a10.862 10.862 0 015.086-1.263c5.96 0 10.864 4.904 10.864 10.864a10.88 10.88 0 01-6.166 9.796h-.006zM499.17 462.518c-4.82 3.565-25.269 5.178-25.269 5.178s7.527-19.075 12.349-22.646a10.864 10.864 0 016.53-2.181c5.96 0 10.864 4.904 10.864 10.864 0 3.473-1.665 6.742-4.473 8.785zM465.585 377.796c4.301 4.179 24.352 8.51 24.352 8.51s-4.909-19.911-9.21-24.096a10.866 10.866 0 00-7.382-2.893c-5.96 0-10.865 4.904-10.865 10.864 0 2.845 1.118 5.58 3.11 7.61l-.005.005zM454.212 428.038c5.36 2.7 25.779.836 25.779.836s-10.643-17.532-16.002-20.232a10.862 10.862 0 00-5.085-1.264c-5.96 0-10.864 4.904-10.864 10.864a10.88 10.88 0 006.166 9.796h.006zM449.858 478.391c4.822 3.565 25.27 5.178 25.27 5.178s-7.527-19.081-12.354-22.646a10.864 10.864 0 00-6.53-2.182c-5.96 0-10.865 4.905-10.865 10.865 0 3.472 1.665 6.742 4.473 8.785h.006z" fill="#789463" fill-rule="nonzero"/><path d="M492.251 329.67c0 6.002-10.864 23.377-10.864 23.377s-10.864-17.398-10.864-23.377a12.065 12.065 0 01-.003-.252c0-5.96 4.905-10.864 10.864-10.864 5.96 0 10.865 4.904 10.865 10.864l-.003.252h.005zM510.228 362.9c-3.261 5.037-21.834 13.733-21.834 13.733s.34-20.507 3.6-25.544a10.872 10.872 0 018.969-4.733c5.96 0 10.864 4.905 10.864 10.864 0 2.003-.554 3.966-1.599 5.674v.006zM509.439 419.687c-5.359 2.7-25.778.836-25.778.836s10.642-17.533 16-20.233a10.862 10.862 0 015.086-1.263c5.96 0 10.864 4.904 10.864 10.864a10.88 10.88 0 01-6.166 9.796h-.006zM499.17 462.518c-4.82 3.565-25.269 5.178-25.269 5.178s7.527-19.075 12.349-22.646a10.864 10.864 0 016.53-2.181c5.96 0 10.864 4.904 10.864 10.864 0 3.473-1.665 6.742-4.473 8.785zM465.585 377.796c4.301 4.179 24.352 8.51 24.352 8.51s-4.909-19.911-9.21-24.096a10.866 10.866 0 00-7.382-2.893c-5.96 0-10.865 4.904-10.865 10.864 0 2.845 1.118 5.58 3.11 7.61l-.005.005zM454.212 428.038c5.36 2.7 25.779.836 25.779.836s-10.643-17.532-16.002-20.232a10.862 10.862 0 00-5.085-1.264c-5.96 0-10.864 4.904-10.864 10.864a10.88 10.88 0 006.166 9.796h.006zM449.858 478.391c4.822 3.565 25.27 5.178 25.27 5.178s-7.527-19.081-12.354-22.646a10.864 10.864 0 00-6.53-2.182c-5.96 0-10.865 4.905-10.865 10.865 0 3.472 1.665 6.742 4.473 8.785h.006z" fill="#fc6681" fill-rule="nonzero"/><path d="M139.402 507.518s-14.418-48.95 2.705-84.98c7.189-15.118 9.573-32.095 6.254-48.505a130.016 130.016 0 00-6.867-22.792" fill="none" stroke="#535461" stroke-width="1.16882"/><path d="M152.124 328.501c0 6.002-10.864 23.377-10.864 23.377s-10.864-17.398-10.864-23.377a12.065 12.065 0 01-.003-.252c0-5.96 4.904-10.864 10.864-10.864 5.96 0 10.864 4.905 10.864 10.864 0 .085 0 .168-.003.252h.006zM170.1 361.73c-3.26 5.039-21.833 13.735-21.833 13.735s.34-20.507 3.6-25.545a10.872 10.872 0 018.969-4.733c5.96 0 10.864 4.905 10.864 10.865 0 2.002-.554 3.965-1.6 5.673v.006zM169.312 418.518c-5.36 2.7-25.779.836-25.779.836s10.643-17.532 16.002-20.232a10.868 10.868 0 014.698-1.069c5.96 0 10.864 4.905 10.864 10.864 0 4.018-2.228 7.72-5.78 9.601h-.005zM159.044 461.35c-4.822 3.565-25.27 5.178-25.27 5.178s7.527-19.076 12.348-22.646a10.864 10.864 0 016.53-2.182c5.961 0 10.865 4.904 10.865 10.864 0 3.473-1.665 6.743-4.473 8.786zM125.458 376.628c4.3 4.178 24.352 8.509 24.352 8.509s-4.909-19.911-9.21-24.096a10.866 10.866 0 00-7.383-2.893c-5.96 0-10.864 4.904-10.864 10.864 0 2.845 1.118 5.58 3.11 7.61l-.005.006zM114.085 426.87c5.359 2.7 25.778.835 25.778.835s-10.642-17.532-16-20.232a10.868 10.868 0 00-4.699-1.069c-5.96 0-10.864 4.905-10.864 10.865 0 4.018 2.228 7.72 5.78 9.6h.005zM109.731 477.222c4.822 3.565 25.27 5.178 25.27 5.178s-7.527-19.08-12.354-22.646a10.864 10.864 0 00-6.53-2.181c-5.961 0-10.865 4.904-10.865 10.864 0 3.472 1.665 6.742 4.473 8.785h.006z" fill="#789463" fill-rule="nonzero"/><path d="M152.124 328.501c0 6.002-10.864 23.377-10.864 23.377s-10.864-17.398-10.864-23.377a12.065 12.065 0 01-.003-.252c0-5.96 4.904-10.864 10.864-10.864 5.96 0 10.864 4.905 10.864 10.864 0 .085 0 .168-.003.252h.006zM170.1 361.73c-3.26 5.039-21.833 13.735-21.833 13.735s.34-20.507 3.6-25.545a10.872 10.872 0 018.969-4.733c5.96 0 10.864 4.905 10.864 10.865 0 2.002-.554 3.965-1.6 5.673v.006zM169.312 418.518c-5.36 2.7-25.779.836-25.779.836s10.643-17.532 16.002-20.232a10.868 10.868 0 014.698-1.069c5.96 0 10.864 4.905 10.864 10.864 0 4.018-2.228 7.72-5.78 9.601h-.005zM159.044 461.35c-4.822 3.565-25.27 5.178-25.27 5.178s7.527-19.076 12.348-22.646a10.864 10.864 0 016.53-2.182c5.961 0 10.865 4.904 10.865 10.864 0 3.473-1.665 6.743-4.473 8.786zM125.458 376.628c4.3 4.178 24.352 8.509 24.352 8.509s-4.909-19.911-9.21-24.096a10.866 10.866 0 00-7.383-2.893c-5.96 0-10.864 4.904-10.864 10.864 0 2.845 1.118 5.58 3.11 7.61l-.005.006zM114.085 426.87c5.359 2.7 25.778.835 25.778.835s-10.642-17.532-16-20.232a10.868 10.868 0 00-4.699-1.069c-5.96 0-10.864 4.905-10.864 10.865 0 4.018 2.228 7.72 5.78 9.6h.005zM109.731 477.222c4.822 3.565 25.27 5.178 25.27 5.178s-7.527-19.08-12.354-22.646a10.864 10.864 0 00-6.53-2.181c-5.961 0-10.865 4.904-10.865 10.864 0 3.472 1.665 6.742 4.473 8.785h.006z" fill="#fc6681" fill-rule="nonzero"/><defs><linearGradient id="_Linear1" x1="0" y1="0" x2="1" y2="0" gradientUnits="userSpaceOnUse" gradientTransform="rotate(-90 698 98.49) scale(433)"><stop offset="0" stop-color="gray" stop-opacity=".25"/><stop offset=".54" stop-color="gray" stop-opacity=".12"/><stop offset="1" stop-color="gray" stop-opacity=".1"/></linearGradient></defs></svg>